<svg width="30" height="30" viewBox="0 0 30 30" fill="none" xmlns="http://www.w3.org/2000/svg">
<mask id="mask0_39_570" style="mask-type:alpha" maskUnits="userSpaceOnUse" x="0" y="0" width="30" height="30">
<rect width="29.9286" height="29.9286" fill="black"/>
</mask>
<g mask="url(#mask0_39_570)">
<path d="M7.29494 21.3241C8.35491 20.5135 9.53958 19.8744 10.849 19.4068C12.1583 18.9392 13.5301 18.7054 14.9641 18.7054C16.3982 18.7054 17.7699 18.9392 19.0793 19.4068C20.3887 19.8744 21.5734 20.5135 22.6333 21.3241C23.3608 20.472 23.9271 19.5055 24.3324 18.4248C24.7377 17.344 24.9403 16.1905 24.9403 14.9643C24.9403 12.2001 23.9687 9.84629 22.0254 7.90302C20.0821 5.95974 17.7284 4.9881 14.9641 4.9881C12.1999 4.9881 9.84614 5.95974 7.90286 7.90302C5.95958 9.84629 4.98794 12.2001 4.98794 14.9643C4.98794 16.1905 5.19059 17.344 5.59587 18.4248C6.00115 19.5055 6.56751 20.472 7.29494 21.3241ZM14.9641 16.2113C13.7379 16.2113 12.7039 15.7904 11.8622 14.9487C11.0204 14.107 10.5996 13.073 10.5996 11.8467C10.5996 10.6205 11.0204 9.5865 11.8622 8.74476C12.7039 7.90302 13.7379 7.48214 14.9641 7.48214C16.1904 7.48214 17.2244 7.90302 18.0661 8.74476C18.9078 9.5865 19.3287 10.6205 19.3287 11.8467C19.3287 13.073 18.9078 14.107 18.0661 14.9487C17.2244 15.7904 16.1904 16.2113 14.9641 16.2113ZM14.9641 27.4345C13.2391 27.4345 11.618 27.1072 10.1007 26.4525C8.58353 25.7978 7.26376 24.9093 6.14144 23.787C5.01912 22.6647 4.13062 21.3449 3.47593 19.8277C2.82124 18.3105 2.4939 16.6893 2.4939 14.9643C2.4939 13.2392 2.82124 11.6181 3.47593 10.1009C4.13062 8.58368 5.01912 7.26392 6.14144 6.14159C7.26376 5.01927 8.58353 4.13077 10.1007 3.47608C11.618 2.82139 13.2391 2.49405 14.9641 2.49405C16.6892 2.49405 18.3103 2.82139 19.8275 3.47608C21.3447 4.13077 22.6645 5.01927 23.7868 6.14159C24.9092 7.26392 25.7977 8.58368 26.4523 10.1009C27.107 11.6181 27.4344 13.2392 27.4344 14.9643C27.4344 16.6893 27.107 18.3105 26.4523 19.8277C25.7977 21.3449 24.9092 22.6647 23.7868 23.787C22.6645 24.9093 21.3447 25.7978 19.8275 26.4525C18.3103 27.1072 16.6892 27.4345 14.9641 27.4345ZM14.9641 24.9405C16.0657 24.9405 17.1049 24.7794 18.0817 24.4573C19.0585 24.1351 19.9522 23.6727 20.7628 23.0699C19.9522 22.4672 19.0585 22.0048 18.0817 21.6826C17.1049 21.3605 16.0657 21.1994 14.9641 21.1994C13.8626 21.1994 12.8234 21.3605 11.8466 21.6826C10.8697 22.0048 9.97604 22.4672 9.16547 23.0699C9.97604 23.6727 10.8697 24.1351 11.8466 24.4573C12.8234 24.7794 13.8626 24.9405 14.9641 24.9405ZM14.9641 13.7173C15.5045 13.7173 15.9514 13.5406 16.3047 13.1873C16.658 12.834 16.8347 12.3871 16.8347 11.8467C16.8347 11.3064 16.658 10.8595 16.3047 10.5062C15.9514 10.1529 15.5045 9.97619 14.9641 9.97619C14.4238 9.97619 13.9769 10.1529 13.6236 10.5062C13.2703 10.8595 13.0936 11.3064 13.0936 11.8467C13.0936 12.3871 13.2703 12.834 13.6236 13.1873C13.9769 13.5406 14.4238 13.7173 14.9641 13.7173Z" fill="black"/>
</g>
</svg>
