<svg width="22" height="22" viewBox="0 0 22 22" fill="none" xmlns="http://www.w3.org/2000/svg">
<mask id="mask0_88_363" style="mask-type:alpha" maskUnits="userSpaceOnUse" x="0" y="0" width="22" height="22">
<rect width="22" height="22" fill="#D9D9D9"/>
</mask>
<g mask="url(#mask0_88_363)">
<path d="M7.79167 5.50016C7.2875 5.50016 6.8559 5.32065 6.49687 4.96162C6.13785 4.60259 5.95833 4.171 5.95833 3.66683C5.95833 3.16266 6.13785 2.73107 6.49687 2.37204C6.8559 2.01301 7.2875 1.8335 7.79167 1.8335C8.29583 1.8335 8.72743 2.01301 9.08646 2.37204C9.44549 2.73107 9.625 3.16266 9.625 3.66683C9.625 4.171 9.44549 4.60259 9.08646 4.96162C8.72743 5.32065 8.29583 5.50016 7.79167 5.50016ZM12.8333 18.3335H6.92083C6.41667 18.3335 5.95451 18.154 5.53437 17.795C5.11424 17.4359 4.85069 17.0043 4.74375 16.5002L2.75 6.41683H4.62917L6.64583 16.5002H12.8333V18.3335ZM17.875 20.1668L15.2167 15.5835H8.84583C8.40278 15.5835 8.01701 15.4498 7.68854 15.1825C7.36007 14.9151 7.15 14.5599 7.05833 14.1168L6.05 9.21266C5.88194 8.47933 6.05382 7.83002 6.56562 7.26475C7.07743 6.69947 7.7 6.41683 8.43333 6.41683C8.96806 6.41683 9.45312 6.57725 9.88854 6.89808C10.324 7.21891 10.6028 7.65433 10.725 8.20433L11.7333 12.8335H14.7125C15.0333 12.8335 15.3313 12.9175 15.6062 13.0856C15.8813 13.2536 16.1028 13.4752 16.2708 13.7502L19.4792 19.2502L17.875 20.1668Z" fill="#1C1B1F"/>
</g>
</svg>
