<svg width="27" height="26" viewBox="0 0 27 26" fill="none" xmlns="http://www.w3.org/2000/svg">
<mask id="mask0_318_27" style="mask-type:alpha" maskUnits="userSpaceOnUse" x="0" y="0" width="27" height="26">
<rect x="0.948242" width="25.9483" height="25.9483" fill="#B1B1B1"/>
</mask>
<g mask="url(#mask0_318_27)">
<path d="M13.9224 18.38C14.2287 18.38 14.4855 18.2764 14.6927 18.0692C14.8999 17.862 15.0036 17.6052 15.0036 17.2988C15.0036 16.9925 14.8999 16.7357 14.6927 16.5285C14.4855 16.3213 14.2287 16.2177 13.9224 16.2177C13.616 16.2177 13.3593 16.3213 13.152 16.5285C12.9448 16.7357 12.8412 16.9925 12.8412 17.2988C12.8412 17.6052 12.9448 17.862 13.152 18.0692C13.3593 18.2764 13.616 18.38 13.9224 18.38ZM13.9224 14.0553C14.2287 14.0553 14.4855 13.9517 14.6927 13.7445C14.8999 13.5372 15.0036 13.2805 15.0036 12.9741C15.0036 12.6678 14.8999 12.411 14.6927 12.2038C14.4855 11.9966 14.2287 11.893 13.9224 11.893C13.616 11.893 13.3593 11.9966 13.152 12.2038C12.9448 12.411 12.8412 12.6678 12.8412 12.9741C12.8412 13.2805 12.9448 13.5372 13.152 13.7445C13.3593 13.9517 13.616 14.0553 13.9224 14.0553ZM13.9224 9.7306C14.2287 9.7306 14.4855 9.62699 14.6927 9.41976C14.8999 9.21253 15.0036 8.95575 15.0036 8.64942C15.0036 8.34309 14.8999 8.08631 14.6927 7.87908C14.4855 7.67186 14.2287 7.56824 13.9224 7.56824C13.616 7.56824 13.3593 7.67186 13.152 7.87908C12.9448 8.08631 12.8412 8.34309 12.8412 8.64942C12.8412 8.95575 12.9448 9.21253 13.152 9.41976C13.3593 9.62699 13.616 9.7306 13.9224 9.7306ZM22.5718 21.6236H5.27295C4.6783 21.6236 4.16925 21.4118 3.74579 20.9884C3.32233 20.5649 3.1106 20.0559 3.1106 19.4612V15.1365C3.70524 15.1365 4.2143 14.9248 4.63776 14.5013C5.06122 14.0778 5.27295 13.5688 5.27295 12.9741C5.27295 12.3795 5.06122 11.8704 4.63776 11.447C4.2143 11.0235 3.70524 10.8118 3.1106 10.8118V6.48706C3.1106 5.89242 3.32233 5.38336 3.74579 4.9599C4.16925 4.53644 4.6783 4.32471 5.27295 4.32471H22.5718C23.1664 4.32471 23.6755 4.53644 24.099 4.9599C24.5224 5.38336 24.7342 5.89242 24.7342 6.48706V10.8118C24.1395 10.8118 23.6305 11.0235 23.207 11.447C22.7835 11.8704 22.5718 12.3795 22.5718 12.9741C22.5718 13.5688 22.7835 14.0778 23.207 14.5013C23.6305 14.9248 24.1395 15.1365 24.7342 15.1365V19.4612C24.7342 20.0559 24.5224 20.5649 24.099 20.9884C23.6755 21.4118 23.1664 21.6236 22.5718 21.6236ZM22.5718 19.4612V16.7042C21.9051 16.3078 21.378 15.7807 20.9906 15.123C20.6032 14.4653 20.4094 13.749 20.4094 12.9741C20.4094 12.1993 20.6032 11.483 20.9906 10.8253C21.378 10.1676 21.9051 9.6405 22.5718 9.24407V6.48706H5.27295V9.24407C5.93968 9.6405 6.46675 10.1676 6.85417 10.8253C7.2416 11.483 7.43531 12.1993 7.43531 12.9741C7.43531 13.749 7.2416 14.4653 6.85417 15.123C6.46675 15.7807 5.93968 16.3078 5.27295 16.7042V19.4612H22.5718Z" fill="#B1B1B1"/>
</g>
</svg>
