<svg width="19" height="19" viewBox="0 0 19 19" fill="none" xmlns="http://www.w3.org/2000/svg">
<mask id="mask0_61_97" style="mask-type:alpha" maskUnits="userSpaceOnUse" x="0" y="0" width="19" height="19">
<rect x="19" width="19" height="19" transform="rotate(90 19 0)" fill="#D9D9D9"/>
</mask>
<g mask="url(#mask0_61_97)">
<path d="M11.875 10.2917L13.4583 10.2917L13.4583 12.6667L16.625 12.6667L16.625 14.25L13.4583 14.25L13.4583 16.625L11.875 16.625L11.875 10.2917ZM2.37499 12.6667L10.2917 12.6667L10.2917 14.25L2.37499 14.25L2.37499 12.6667ZM2.375 4.75L5.54167 4.75L5.54167 2.375L7.125 2.375L7.125 8.70833L5.54167 8.70833L5.54167 6.33333L2.375 6.33333L2.375 4.75ZM8.70833 4.75L16.625 4.75L16.625 6.33333L8.70833 6.33333L8.70833 4.75Z" fill="#1C1B1F"/>
<path d="M2.375 22.1667L5.54167 22.1667L5.54167 19.7917L7.125 19.7917L7.125 26.125L5.54166 26.125L5.54167 23.75L2.375 23.75L2.375 22.1667ZM8.70833 22.1667L16.625 22.1667L16.625 23.75L8.70833 23.75L8.70833 22.1667Z" fill="#1C1B1F"/>
</g>
</svg>
