<svg width="18" height="18" viewBox="0 0 18 18" fill="none" xmlns="http://www.w3.org/2000/svg">
<mask id="mask0_88_700" style="mask-type:alpha" maskUnits="userSpaceOnUse" x="0" y="0" width="18" height="18">
<rect width="18" height="18" fill="#D9D9D9"/>
</mask>
<g mask="url(#mask0_88_700)">
<path d="M3 16.5V8.25H1.5V3.75H5.4C5.3375 3.6375 5.29688 3.51875 5.27812 3.39375C5.25937 3.26875 5.25 3.1375 5.25 3C5.25 2.375 5.46875 1.84375 5.90625 1.40625C6.34375 0.96875 6.875 0.75 7.5 0.75C7.7875 0.75 8.05625 0.803125 8.30625 0.909375C8.55625 1.01562 8.7875 1.1625 9 1.35C9.2125 1.15 9.44375 1 9.69375 0.9C9.94375 0.8 10.2125 0.75 10.5 0.75C11.125 0.75 11.6562 0.96875 12.0938 1.40625C12.5312 1.84375 12.75 2.375 12.75 3C12.75 3.1375 12.7375 3.26562 12.7125 3.38438C12.6875 3.50312 12.65 3.625 12.6 3.75H16.5V8.25H15V16.5H3ZM10.5 2.25C10.2875 2.25 10.1094 2.32188 9.96563 2.46563C9.82188 2.60938 9.75 2.7875 9.75 3C9.75 3.2125 9.82188 3.39062 9.96563 3.53438C10.1094 3.67813 10.2875 3.75 10.5 3.75C10.7125 3.75 10.8906 3.67813 11.0344 3.53438C11.1781 3.39062 11.25 3.2125 11.25 3C11.25 2.7875 11.1781 2.60938 11.0344 2.46563C10.8906 2.32188 10.7125 2.25 10.5 2.25ZM6.75 3C6.75 3.2125 6.82188 3.39062 6.96562 3.53438C7.10938 3.67813 7.2875 3.75 7.5 3.75C7.7125 3.75 7.89063 3.67813 8.03438 3.53438C8.17813 3.39062 8.25 3.2125 8.25 3C8.25 2.7875 8.17813 2.60938 8.03438 2.46563C7.89063 2.32188 7.7125 2.25 7.5 2.25C7.2875 2.25 7.10938 2.32188 6.96562 2.46563C6.82188 2.60938 6.75 2.7875 6.75 3ZM3 5.25V6.75H8.25V5.25H3ZM8.25 15V8.25H4.5V15H8.25ZM9.75 15H13.5V8.25H9.75V15ZM15 6.75V5.25H9.75V6.75H15Z" fill="#FFB561"/>
</g>
</svg>
