<svg width="22" height="22" viewBox="0 0 22 22" fill="none" xmlns="http://www.w3.org/2000/svg">
<mask id="mask0_88_353" style="mask-type:alpha" maskUnits="userSpaceOnUse" x="0" y="0" width="22" height="22">
<rect width="22" height="22" fill="#D9D9D9"/>
</mask>
<g mask="url(#mask0_88_353)">
<path d="M10.7708 14.6668H11.4354V13.9335C11.8632 13.8724 12.226 13.6967 12.5239 13.4064C12.8218 13.1161 12.9708 12.7418 12.9708 12.2835C12.9708 11.8863 12.818 11.554 12.5125 11.2866C12.2069 11.0193 11.8555 10.8016 11.4583 10.6335V8.93766C11.6111 8.9835 11.7371 9.05989 11.8364 9.16683C11.9357 9.27377 12.0083 9.40364 12.0541 9.55641L12.8791 9.21266C12.7722 8.89183 12.5888 8.63593 12.3291 8.44495C12.0694 8.25398 11.7791 8.12794 11.4583 8.06683V7.3335H10.7708V8.04391C10.343 8.08975 9.98017 8.24634 9.68225 8.5137C9.38433 8.78107 9.23538 9.13627 9.23538 9.57933C9.23538 9.99183 9.39197 10.3356 9.70517 10.6106C10.0184 10.8856 10.3736 11.1071 10.7708 11.2752V13.0856C10.5263 13.0092 10.3201 12.8793 10.152 12.696C9.98399 12.5127 9.8694 12.2988 9.80829 12.0543L9.00621 12.3981C9.12843 12.8259 9.34232 13.1772 9.64788 13.4522C9.95343 13.7272 10.3277 13.8953 10.7708 13.9564V14.6668ZM11.4583 13.0627V11.5502C11.6263 11.6266 11.7753 11.7182 11.9052 11.8252C12.035 11.9321 12.1 12.0925 12.1 12.3064C12.1 12.5509 12.0388 12.7227 11.9166 12.822C11.7944 12.9213 11.6416 13.0016 11.4583 13.0627ZM10.7708 10.3356C10.6027 10.2592 10.45 10.1675 10.3125 10.0606C10.175 9.95363 10.1062 9.79322 10.1062 9.57933C10.1062 9.36544 10.175 9.20884 10.3125 9.10954C10.45 9.01023 10.6027 8.9453 10.7708 8.91475V10.3356ZM7.33329 17.4168C5.54579 17.4168 4.02947 16.7943 2.78433 15.5491C1.5392 14.304 0.916626 12.7877 0.916626 11.0002C0.916626 9.21266 1.5392 7.69634 2.78433 6.4512C4.02947 5.20607 5.54579 4.5835 7.33329 4.5835H14.6666C16.4541 4.5835 17.9704 5.20607 19.2156 6.4512C20.4607 7.69634 21.0833 9.21266 21.0833 11.0002C21.0833 12.7877 20.4607 14.304 19.2156 15.5491C17.9704 16.7943 16.4541 17.4168 14.6666 17.4168H7.33329ZM7.33329 15.5835H14.6666C15.9347 15.5835 17.0156 15.1366 17.9093 14.2429C18.8031 13.3491 19.25 12.2682 19.25 11.0002C19.25 9.73211 18.8031 8.6512 17.9093 7.75745C17.0156 6.8637 15.9347 6.41683 14.6666 6.41683H7.33329C6.06524 6.41683 4.98433 6.8637 4.09058 7.75745C3.19683 8.6512 2.74996 9.73211 2.74996 11.0002C2.74996 12.2682 3.19683 13.3491 4.09058 14.2429C4.98433 15.1366 6.06524 15.5835 7.33329 15.5835Z" fill="#1C1B1F"/>
</g>
</svg>
