<svg width="329" height="18" viewBox="0 0 329 18" fill="none" xmlns="http://www.w3.org/2000/svg">
<path d="M26.8651 5.54545L29.4964 13.2457H29.6026L32.234 5.54545H33.7759L30.3736 15H28.7255L25.3232 5.54545H26.8651ZM37.3064 15.1431C36.6416 15.1431 36.0615 14.9908 35.566 14.6861C35.0705 14.3814 34.6858 13.9551 34.4118 13.4073C34.1379 12.8595 34.001 12.2193 34.001 11.4869C34.001 10.7513 34.1379 10.1081 34.4118 9.55717C34.6858 9.00627 35.0705 8.57848 35.566 8.27379C36.0615 7.96911 36.6416 7.81676 37.3064 7.81676C37.9711 7.81676 38.5513 7.96911 39.0468 8.27379C39.5423 8.57848 39.927 9.00627 40.2009 9.55717C40.4748 10.1081 40.6118 10.7513 40.6118 11.4869C40.6118 12.2193 40.4748 12.8595 40.2009 13.4073C39.927 13.9551 39.5423 14.3814 39.0468 14.6861C38.5513 14.9908 37.9711 15.1431 37.3064 15.1431ZM37.311 13.9844C37.7419 13.9844 38.0989 13.8705 38.382 13.6428C38.6652 13.415 38.8744 13.1119 39.0099 12.7333C39.1483 12.3548 39.2176 11.9377 39.2176 11.4822C39.2176 11.0298 39.1483 10.6143 39.0099 10.2358C38.8744 9.85417 38.6652 9.54794 38.382 9.31712C38.0989 9.08629 37.7419 8.97088 37.311 8.97088C36.877 8.97088 36.517 9.08629 36.2307 9.31712C35.9476 9.54794 35.7368 9.85417 35.5983 10.2358C35.4629 10.6143 35.3952 11.0298 35.3952 11.4822C35.3952 11.9377 35.4629 12.3548 35.5983 12.7333C35.7368 13.1119 35.9476 13.415 36.2307 13.6428C36.517 13.8705 36.877 13.9844 37.311 13.9844ZM45.4625 7.90909V9.01705H41.5893V7.90909H45.4625ZM42.628 6.21023H44.0083V12.918C44.0083 13.1857 44.0484 13.3873 44.1284 13.5227C44.2084 13.6551 44.3115 13.7459 44.4377 13.7951C44.5669 13.8413 44.707 13.8643 44.8578 13.8643C44.9686 13.8643 45.0655 13.8567 45.1486 13.8413C45.2317 13.8259 45.2963 13.8136 45.3425 13.8043L45.5918 14.9446C45.5118 14.9754 45.3979 15.0062 45.2502 15.0369C45.1025 15.0708 44.9178 15.0893 44.6962 15.0923C44.333 15.0985 43.9945 15.0339 43.6806 14.8984C43.3667 14.763 43.1127 14.5537 42.9189 14.2706C42.725 13.9875 42.628 13.632 42.628 13.2042V6.21023ZM46.9894 15V7.90909H48.3236V9.03551H48.3975C48.5267 8.65388 48.7545 8.35381 49.0807 8.1353C49.41 7.91371 49.7824 7.80291 50.1979 7.80291C50.2841 7.80291 50.3856 7.80599 50.5026 7.81214C50.6226 7.8183 50.7165 7.82599 50.7842 7.83523V9.15554C50.7288 9.14015 50.6303 9.12322 50.4887 9.10476C50.3472 9.08321 50.2056 9.07244 50.064 9.07244C49.7378 9.07244 49.4469 9.14169 49.1915 9.28018C48.9391 9.4156 48.7391 9.60488 48.5914 9.84801C48.4436 10.0881 48.3698 10.362 48.3698 10.6697V15H46.9894ZM54.7809 15.1431C54.0823 15.1431 53.4806 14.9938 52.9759 14.6953C52.4742 14.3937 52.0864 13.9705 51.8125 13.4258C51.5417 12.878 51.4062 12.2363 51.4062 11.5007C51.4062 10.7744 51.5417 10.1342 51.8125 9.58026C52.0864 9.02628 52.468 8.59387 52.9574 8.28303C53.4498 7.97218 54.0253 7.81676 54.6839 7.81676C55.084 7.81676 55.4718 7.88293 55.8473 8.01527C56.2228 8.14761 56.5598 8.35535 56.8583 8.63849C57.1568 8.92164 57.3923 9.28942 57.5646 9.74183C57.737 10.1912 57.8232 10.7375 57.8232 11.3807V11.87H52.1864V10.8359H56.4705C56.4705 10.4728 56.3967 10.1512 56.2489 9.87109C56.1012 9.58795 55.8935 9.36482 55.6257 9.2017C55.361 9.03859 55.0502 8.95703 54.6932 8.95703C54.3054 8.95703 53.9669 9.05244 53.6776 9.24325C53.3913 9.43099 53.1697 9.6772 53.0128 9.98189C52.8589 10.2835 52.782 10.6113 52.782 10.9652V11.7731C52.782 12.247 52.8651 12.6502 53.0312 12.9826C53.2005 13.315 53.436 13.5689 53.7376 13.7443C54.0392 13.9167 54.3916 14.0028 54.7947 14.0028C55.0563 14.0028 55.2949 13.9659 55.5103 13.892C55.7257 13.8151 55.9119 13.7012 56.0689 13.5504C56.2259 13.3996 56.3459 13.2134 56.429 12.9918L57.7354 13.2273C57.6308 13.612 57.4431 13.949 57.1722 14.2383C56.9045 14.5245 56.5675 14.7476 56.1612 14.9077C55.758 15.0646 55.2979 15.1431 54.7809 15.1431ZM68.1087 9.64027L66.8576 9.86186C66.8053 9.70182 66.7222 9.54948 66.6083 9.40483C66.4975 9.26018 66.3467 9.14169 66.1559 9.04936C65.9651 8.95703 65.7266 8.91087 65.4403 8.91087C65.0495 8.91087 64.7232 8.99858 64.4616 9.17401C64.2 9.34635 64.0692 9.56948 64.0692 9.84339C64.0692 10.0804 64.157 10.2712 64.3324 10.4158C64.5078 10.5605 64.791 10.679 65.1818 10.7713L66.3082 11.0298C66.9607 11.1806 67.447 11.413 67.767 11.7269C68.0871 12.0408 68.2472 12.4486 68.2472 12.9503C68.2472 13.375 68.1241 13.7536 67.8778 14.0859C67.6347 14.4152 67.2946 14.6738 66.8576 14.8615C66.4237 15.0492 65.9205 15.1431 65.348 15.1431C64.554 15.1431 63.9061 14.9738 63.4045 14.6353C62.9028 14.2937 62.5951 13.8089 62.4812 13.1811L63.8153 12.978C63.8984 13.3258 64.0692 13.5889 64.3278 13.7674C64.5863 13.9428 64.9233 14.0305 65.3388 14.0305C65.7912 14.0305 66.1528 13.9367 66.4237 13.7489C66.6945 13.5581 66.8299 13.3258 66.8299 13.0518C66.8299 12.8303 66.7468 12.6441 66.5806 12.4933C66.4175 12.3424 66.1667 12.2286 65.8281 12.1516L64.6278 11.8885C63.9661 11.7377 63.4768 11.4976 63.1598 11.1683C62.8459 10.839 62.6889 10.422 62.6889 9.91726C62.6889 9.4987 62.8059 9.13246 63.0398 8.81854C63.2737 8.50462 63.5968 8.25994 64.0092 8.08452C64.4216 7.90601 64.8941 7.81676 65.4265 7.81676C66.1928 7.81676 66.796 7.98295 67.2362 8.31534C67.6763 8.64465 67.9671 9.08629 68.1087 9.64027ZM69.7648 15V7.90909H71.1452V15H69.7648ZM70.4619 6.81499C70.2219 6.81499 70.0157 6.73497 69.8433 6.57493C69.674 6.41181 69.5894 6.21792 69.5894 5.99325C69.5894 5.76551 69.674 5.57161 69.8433 5.41158C70.0157 5.24846 70.2219 5.1669 70.4619 5.1669C70.702 5.1669 70.9066 5.24846 71.0759 5.41158C71.2483 5.57161 71.3344 5.76551 71.3344 5.99325C71.3344 6.21792 71.2483 6.41181 71.0759 6.57493C70.9066 6.73497 70.702 6.81499 70.4619 6.81499ZM76.0582 15.1431C75.3596 15.1431 74.7579 14.9938 74.2532 14.6953C73.7515 14.3937 73.3638 13.9705 73.0898 13.4258C72.819 12.878 72.6836 12.2363 72.6836 11.5007C72.6836 10.7744 72.819 10.1342 73.0898 9.58026C73.3638 9.02628 73.7454 8.59387 74.2347 8.28303C74.7272 7.97218 75.3027 7.81676 75.9613 7.81676C76.3614 7.81676 76.7492 7.88293 77.1246 8.01527C77.5001 8.14761 77.8371 8.35535 78.1357 8.63849C78.4342 8.92164 78.6696 9.28942 78.842 9.74183C79.0143 10.1912 79.1005 10.7375 79.1005 11.3807V11.87H73.4638V10.8359H77.7479C77.7479 10.4728 77.674 10.1512 77.5263 9.87109C77.3786 9.58795 77.1708 9.36482 76.9031 9.2017C76.6384 9.03859 76.3275 8.95703 75.9705 8.95703C75.5827 8.95703 75.2442 9.05244 74.9549 9.24325C74.6687 9.43099 74.4471 9.6772 74.2901 9.98189C74.1362 10.2835 74.0593 10.6113 74.0593 10.9652V11.7731C74.0593 12.247 74.1424 12.6502 74.3086 12.9826C74.4779 13.315 74.7133 13.5689 75.0149 13.7443C75.3165 13.9167 75.6689 14.0028 76.0721 14.0028C76.3337 14.0028 76.5722 13.9659 76.7876 13.892C77.0031 13.8151 77.1893 13.7012 77.3462 13.5504C77.5032 13.3996 77.6232 13.2134 77.7063 12.9918L79.0128 13.2273C78.9081 13.612 78.7204 13.949 78.4496 14.2383C78.1818 14.5245 77.8448 14.7476 77.4386 14.9077C77.0354 15.0646 76.5753 15.1431 76.0582 15.1431ZM75.3381 6.96271L76.4183 4.83452H77.8725L76.4414 6.96271H75.3381ZM83.605 17.8068C83.0418 17.8068 82.5571 17.733 82.1508 17.5852C81.7477 17.4375 81.4184 17.2421 81.1629 16.9989C80.9075 16.7558 80.7166 16.4896 80.5905 16.2003L81.7769 15.7109C81.86 15.8464 81.9708 15.9895 82.1093 16.1403C82.2509 16.2942 82.4417 16.425 82.6817 16.5327C82.9249 16.6404 83.2372 16.6942 83.6189 16.6942C84.1421 16.6942 84.5745 16.5665 84.9161 16.3111C85.2577 16.0587 85.4285 15.6555 85.4285 15.1016V13.7074H85.3408C85.2577 13.8582 85.1377 14.0259 84.9807 14.2106C84.8269 14.3952 84.6145 14.5553 84.3437 14.6907C84.0728 14.8261 83.7204 14.8938 83.2865 14.8938C82.7264 14.8938 82.2216 14.763 81.7723 14.5014C81.326 14.2367 80.9721 13.8474 80.7105 13.3335C80.452 12.8164 80.3227 12.1809 80.3227 11.4268C80.3227 10.6728 80.4504 10.0265 80.7059 9.48793C80.9644 8.94934 81.3183 8.53693 81.7677 8.25071C82.217 7.96141 82.7264 7.81676 83.2957 7.81676C83.7358 7.81676 84.0913 7.89062 84.3621 8.03835C84.633 8.183 84.8438 8.35227 84.9946 8.54616C85.1485 8.74006 85.267 8.91087 85.3501 9.05859H85.4516V7.90909H86.8042V15.157C86.8042 15.7663 86.6627 16.2665 86.3795 16.6573C86.0964 17.0482 85.7132 17.3375 85.23 17.5252C84.7499 17.7129 84.2082 17.8068 83.605 17.8068ZM83.5912 13.7489C83.9882 13.7489 84.3237 13.6566 84.5976 13.4719C84.8746 13.2842 85.0838 13.0165 85.2254 12.6687C85.3701 12.3178 85.4424 11.8977 85.4424 11.4084C85.4424 10.9313 85.3716 10.5112 85.23 10.1481C85.0885 9.78492 84.8807 9.50178 84.6068 9.29865C84.3329 9.09245 83.9943 8.98935 83.5912 8.98935C83.1757 8.98935 82.8295 9.09706 82.5525 9.3125C82.2755 9.52486 82.0662 9.81416 81.9246 10.1804C81.7861 10.5466 81.7169 10.956 81.7169 11.4084C81.7169 11.8731 81.7877 12.2809 81.9292 12.6317C82.0708 12.9826 82.2801 13.2565 82.5571 13.4535C82.8372 13.6504 83.1818 13.7489 83.5912 13.7489ZM91.7116 15.1431C91.0129 15.1431 90.4113 14.9938 89.9065 14.6953C89.4049 14.3937 89.0171 13.9705 88.7432 13.4258C88.4723 12.878 88.3369 12.2363 88.3369 11.5007C88.3369 10.7744 88.4723 10.1342 88.7432 9.58026C89.0171 9.02628 89.3987 8.59387 89.8881 8.28303C90.3805 7.97218 90.956 7.81676 91.6146 7.81676C92.0147 7.81676 92.4025 7.88293 92.778 8.01527C93.1534 8.14761 93.4904 8.35535 93.789 8.63849C94.0875 8.92164 94.3229 9.28942 94.4953 9.74183C94.6676 10.1912 94.7538 10.7375 94.7538 11.3807V11.87H89.1171V10.8359H93.4012C93.4012 10.4728 93.3273 10.1512 93.1796 9.87109C93.0319 9.58795 92.8241 9.36482 92.5564 9.2017C92.2917 9.03859 91.9809 8.95703 91.6238 8.95703C91.2361 8.95703 90.8975 9.05244 90.6082 9.24325C90.322 9.43099 90.1004 9.6772 89.9434 9.98189C89.7896 10.2835 89.7126 10.6113 89.7126 10.9652V11.7731C89.7126 12.247 89.7957 12.6502 89.9619 12.9826C90.1312 13.315 90.3666 13.5689 90.6682 13.7443C90.9698 13.9167 91.3222 14.0028 91.7254 14.0028C91.987 14.0028 92.2255 13.9659 92.441 13.892C92.6564 13.8151 92.8426 13.7012 92.9996 13.5504C93.1565 13.3996 93.2765 13.2134 93.3596 12.9918L94.6661 13.2273C94.5615 13.612 94.3737 13.949 94.1029 14.2383C93.8351 14.5245 93.4981 14.7476 93.0919 14.9077C92.6887 15.0646 92.2286 15.1431 91.7116 15.1431Z" fill="#838383"/>
<mask id="mask0_88_339" style="mask-type:alpha" maskUnits="userSpaceOnUse" x="0" y="0" width="18" height="18">
<rect width="18" height="18" fill="#F29123"/>
</mask>
<g mask="url(#mask0_88_339)">
<path d="M3 16.5C2.5875 16.5 2.23438 16.3531 1.94062 16.0594C1.64688 15.7656 1.5 15.4125 1.5 15V3C1.5 2.5875 1.64688 2.23438 1.94062 1.94062C2.23438 1.64688 2.5875 1.5 3 1.5H15C15.4125 1.5 15.7656 1.64688 16.0594 1.94062C16.3531 2.23438 16.5 2.5875 16.5 3V15C16.5 15.4125 16.3531 15.7656 16.0594 16.0594C15.7656 16.3531 15.4125 16.5 15 16.5H3ZM3 15H15V3H3V15ZM5.25 13.5H12.75C13.1625 13.5 13.5156 13.3531 13.8094 13.0594C14.1031 12.7656 14.25 12.4125 14.25 12V9.375C14.25 9.0375 14.1656 8.72812 13.9969 8.44687C13.8281 8.16562 13.6 7.9375 13.3125 7.7625V6.75C13.3125 6.125 13.0937 5.59375 12.6562 5.15625C12.2187 4.71875 11.6875 4.5 11.0625 4.5H6.9375C6.3125 4.5 5.78125 4.71875 5.34375 5.15625C4.90625 5.59375 4.6875 6.125 4.6875 6.75V7.7625C4.4 7.9375 4.17187 8.16562 4.00312 8.44687C3.83437 8.72812 3.75 9.0375 3.75 9.375V12C3.75 12.4125 3.89687 12.7656 4.19062 13.0594C4.48437 13.3531 4.8375 13.5 5.25 13.5ZM5.25 12.375C5.1375 12.375 5.04688 12.3406 4.97812 12.2719C4.90937 12.2031 4.875 12.1125 4.875 12V9.375C4.875 9.1625 4.94687 8.98437 5.09062 8.84062C5.23437 8.69687 5.4125 8.625 5.625 8.625C5.8375 8.625 6.01562 8.69687 6.15937 8.84062C6.30312 8.98437 6.375 9.1625 6.375 9.375V10.875H11.625V9.375C11.625 9.1625 11.6969 8.98437 11.8406 8.84062C11.9844 8.69687 12.1625 8.625 12.375 8.625C12.5875 8.625 12.7656 8.69687 12.9094 8.84062C13.0531 8.98437 13.125 9.1625 13.125 9.375V12C13.125 12.1125 13.0906 12.2031 13.0219 12.2719C12.9531 12.3406 12.8625 12.375 12.75 12.375H5.25ZM7.5 9.75V9.375C7.5 8.8875 7.3375 8.46875 7.0125 8.11875C6.6875 7.76875 6.2875 7.575 5.8125 7.5375V6.75C5.8125 6.425 5.91875 6.15625 6.13125 5.94375C6.34375 5.73125 6.6125 5.625 6.9375 5.625H11.0625C11.3875 5.625 11.6562 5.73125 11.8687 5.94375C12.0812 6.15625 12.1875 6.425 12.1875 6.75V7.5375C11.7125 7.575 11.3125 7.76875 10.9875 8.11875C10.6625 8.46875 10.5 8.8875 10.5 9.375V9.75H7.5Z" fill="#F29123"/>
</g>
<path d="M137.099 15H134.039V5.54545H137.196C138.123 5.54545 138.918 5.73473 139.583 6.11328C140.248 6.48875 140.757 7.02888 141.111 7.73366C141.468 8.43537 141.647 9.27711 141.647 10.2589C141.647 11.2437 141.467 12.0901 141.107 12.7979C140.75 13.5058 140.232 14.0505 139.555 14.4322C138.878 14.8107 138.06 15 137.099 15ZM135.465 13.7536H137.021C137.741 13.7536 138.34 13.6181 138.817 13.3473C139.294 13.0734 139.651 12.6779 139.888 12.1609C140.125 11.6407 140.243 11.0067 140.243 10.2589C140.243 9.51716 140.125 8.88778 139.888 8.37074C139.654 7.85369 139.305 7.46129 138.84 7.19354C138.375 6.92578 137.798 6.7919 137.109 6.7919H135.465V13.7536ZM143.31 15V7.90909H144.69V15H143.31ZM144.007 6.81499C143.767 6.81499 143.561 6.73497 143.388 6.57493C143.219 6.41181 143.134 6.21792 143.134 5.99325C143.134 5.76551 143.219 5.57161 143.388 5.41158C143.561 5.24846 143.767 5.1669 144.007 5.1669C144.247 5.1669 144.452 5.24846 144.621 5.41158C144.793 5.57161 144.879 5.76551 144.879 5.99325C144.879 6.21792 144.793 6.41181 144.621 6.57493C144.452 6.73497 144.247 6.81499 144.007 6.81499ZM151.861 9.64027L150.61 9.86186C150.557 9.70182 150.474 9.54948 150.36 9.40483C150.249 9.26018 150.099 9.14169 149.908 9.04936C149.717 8.95703 149.479 8.91087 149.192 8.91087C148.801 8.91087 148.475 8.99858 148.214 9.17401C147.952 9.34635 147.821 9.56948 147.821 9.84339C147.821 10.0804 147.909 10.2712 148.084 10.4158C148.26 10.5605 148.543 10.679 148.934 10.7713L150.06 11.0298C150.713 11.1806 151.199 11.413 151.519 11.7269C151.839 12.0408 151.999 12.4486 151.999 12.9503C151.999 13.375 151.876 13.7536 151.63 14.0859C151.387 14.4152 151.047 14.6738 150.61 14.8615C150.176 15.0492 149.672 15.1431 149.1 15.1431C148.306 15.1431 147.658 14.9738 147.156 14.6353C146.655 14.2937 146.347 13.8089 146.233 13.1811L147.567 12.978C147.65 13.3258 147.821 13.5889 148.08 13.7674C148.338 13.9428 148.675 14.0305 149.091 14.0305C149.543 14.0305 149.905 13.9367 150.176 13.7489C150.446 13.5581 150.582 13.3258 150.582 13.0518C150.582 12.8303 150.499 12.6441 150.333 12.4933C150.169 12.3424 149.919 12.2286 149.58 12.1516L148.38 11.8885C147.718 11.7377 147.229 11.4976 146.912 11.1683C146.598 10.839 146.441 10.422 146.441 9.91726C146.441 9.4987 146.558 9.13246 146.792 8.81854C147.026 8.50462 147.349 8.25994 147.761 8.08452C148.174 7.90601 148.646 7.81676 149.178 7.81676C149.945 7.81676 150.548 7.98295 150.988 8.31534C151.428 8.64465 151.719 9.08629 151.861 9.64027ZM153.517 17.6591V7.90909H154.865V9.05859H154.98C155.06 8.91087 155.176 8.74006 155.326 8.54616C155.477 8.35227 155.687 8.183 155.954 8.03835C156.222 7.89062 156.576 7.81676 157.016 7.81676C157.589 7.81676 158.099 7.96141 158.549 8.25071C158.998 8.54001 159.35 8.95703 159.606 9.50178C159.864 10.0465 159.994 10.7021 159.994 11.4684C159.994 12.2347 159.866 12.8918 159.611 13.4396C159.355 13.9844 159.004 14.4045 158.558 14.6999C158.112 14.9923 157.602 15.1385 157.03 15.1385C156.599 15.1385 156.247 15.0662 155.973 14.9215C155.702 14.7769 155.49 14.6076 155.336 14.4137C155.182 14.2198 155.063 14.0475 154.98 13.8967H154.897V17.6591H153.517ZM154.869 11.4545C154.869 11.9531 154.942 12.3902 155.086 12.7656C155.231 13.1411 155.44 13.435 155.714 13.6474C155.988 13.8567 156.324 13.9613 156.721 13.9613C157.133 13.9613 157.478 13.852 157.755 13.6335C158.032 13.4119 158.241 13.1119 158.383 12.7333C158.527 12.3548 158.6 11.9285 158.6 11.4545C158.6 10.9867 158.529 10.5666 158.387 10.1942C158.249 9.82185 158.039 9.52794 157.759 9.3125C157.482 9.09706 157.136 8.98935 156.721 8.98935C156.321 8.98935 155.982 9.09245 155.705 9.29865C155.431 9.50485 155.223 9.79261 155.082 10.1619C154.94 10.5312 154.869 10.9621 154.869 11.4545ZM164.527 15.1431C163.862 15.1431 163.282 14.9908 162.787 14.6861C162.291 14.3814 161.906 13.9551 161.633 13.4073C161.359 12.8595 161.222 12.2193 161.222 11.4869C161.222 10.7513 161.359 10.1081 161.633 9.55717C161.906 9.00627 162.291 8.57848 162.787 8.27379C163.282 7.96911 163.862 7.81676 164.527 7.81676C165.192 7.81676 165.772 7.96911 166.267 8.27379C166.763 8.57848 167.148 9.00627 167.422 9.55717C167.696 10.1081 167.832 10.7513 167.832 11.4869C167.832 12.2193 167.696 12.8595 167.422 13.4073C167.148 13.9551 166.763 14.3814 166.267 14.6861C165.772 14.9908 165.192 15.1431 164.527 15.1431ZM164.532 13.9844C164.963 13.9844 165.32 13.8705 165.603 13.6428C165.886 13.415 166.095 13.1119 166.231 12.7333C166.369 12.3548 166.438 11.9377 166.438 11.4822C166.438 11.0298 166.369 10.6143 166.231 10.2358C166.095 9.85417 165.886 9.54794 165.603 9.31712C165.32 9.08629 164.963 8.97088 164.532 8.97088C164.098 8.97088 163.738 9.08629 163.451 9.31712C163.168 9.54794 162.957 9.85417 162.819 10.2358C162.684 10.6143 162.616 11.0298 162.616 11.4822C162.616 11.9377 162.684 12.3548 162.819 12.7333C162.957 13.1119 163.168 13.415 163.451 13.6428C163.738 13.8705 164.098 13.9844 164.532 13.9844ZM170.754 10.7898V15H169.373V7.90909H170.698V9.06321H170.786C170.949 8.68774 171.204 8.38613 171.552 8.15838C171.903 7.93063 172.345 7.81676 172.877 7.81676C173.36 7.81676 173.783 7.91832 174.147 8.12145C174.51 8.3215 174.791 8.62003 174.991 9.01705C175.192 9.41406 175.292 9.90495 175.292 10.4897V15H173.911V10.6559C173.911 10.1419 173.777 9.74029 173.51 9.45099C173.242 9.15862 172.874 9.01243 172.406 9.01243C172.086 9.01243 171.801 9.08168 171.552 9.22017C171.306 9.35866 171.111 9.56179 170.966 9.82955C170.824 10.0942 170.754 10.4143 170.754 10.7898ZM177.143 15V7.90909H178.523V15H177.143ZM177.84 6.81499C177.6 6.81499 177.394 6.73497 177.221 6.57493C177.052 6.41181 176.967 6.21792 176.967 5.99325C176.967 5.76551 177.052 5.57161 177.221 5.41158C177.394 5.24846 177.6 5.1669 177.84 5.1669C178.08 5.1669 178.285 5.24846 178.454 5.41158C178.626 5.57161 178.712 5.76551 178.712 5.99325C178.712 6.21792 178.626 6.41181 178.454 6.57493C178.285 6.73497 178.08 6.81499 177.84 6.81499ZM180.491 15V5.54545H181.871V9.05859H181.954C182.034 8.91087 182.15 8.74006 182.301 8.54616C182.451 8.35227 182.661 8.183 182.928 8.03835C183.196 7.89062 183.55 7.81676 183.99 7.81676C184.563 7.81676 185.073 7.96141 185.523 8.25071C185.972 8.54001 186.325 8.95703 186.58 9.50178C186.839 10.0465 186.968 10.7021 186.968 11.4684C186.968 12.2347 186.84 12.8918 186.585 13.4396C186.329 13.9844 185.978 14.4045 185.532 14.6999C185.086 14.9923 184.576 15.1385 184.004 15.1385C183.573 15.1385 183.221 15.0662 182.947 14.9215C182.676 14.7769 182.464 14.6076 182.31 14.4137C182.156 14.2198 182.037 14.0475 181.954 13.8967H181.839V15H180.491ZM181.843 11.4545C181.843 11.9531 181.916 12.3902 182.06 12.7656C182.205 13.1411 182.414 13.435 182.688 13.6474C182.962 13.8567 183.298 13.9613 183.695 13.9613C184.107 13.9613 184.452 13.852 184.729 13.6335C185.006 13.4119 185.215 13.1119 185.357 12.7333C185.501 12.3548 185.574 11.9285 185.574 11.4545C185.574 10.9867 185.503 10.5666 185.361 10.1942C185.223 9.82185 185.013 9.52794 184.733 9.3125C184.456 9.09706 184.11 8.98935 183.695 8.98935C183.295 8.98935 182.956 9.09245 182.679 9.29865C182.405 9.50485 182.197 9.79261 182.056 10.1619C181.914 10.5312 181.843 10.9621 181.843 11.4545ZM189.898 5.54545V15H188.518V5.54545H189.898ZM194.811 15.1431C194.113 15.1431 193.511 14.9938 193.006 14.6953C192.504 14.3937 192.117 13.9705 191.843 13.4258C191.572 12.878 191.437 12.2363 191.437 11.5007C191.437 10.7744 191.572 10.1342 191.843 9.58026C192.117 9.02628 192.498 8.59387 192.988 8.28303C193.48 7.97218 194.056 7.81676 194.714 7.81676C195.114 7.81676 195.502 7.88293 195.878 8.01527C196.253 8.14761 196.59 8.35535 196.889 8.63849C197.187 8.92164 197.423 9.28942 197.595 9.74183C197.767 10.1912 197.853 10.7375 197.853 11.3807V11.87H192.217V10.8359H196.501C196.501 10.4728 196.427 10.1512 196.279 9.87109C196.131 9.58795 195.924 9.36482 195.656 9.2017C195.391 9.03859 195.08 8.95703 194.723 8.95703C194.336 8.95703 193.997 9.05244 193.708 9.24325C193.422 9.43099 193.2 9.6772 193.043 9.98189C192.889 10.2835 192.812 10.6113 192.812 10.9652V11.7731C192.812 12.247 192.895 12.6502 193.062 12.9826C193.231 13.315 193.466 13.5689 193.768 13.7443C194.069 13.9167 194.422 14.0028 194.825 14.0028C195.087 14.0028 195.325 13.9659 195.541 13.892C195.756 13.8151 195.942 13.7012 196.099 13.5504C196.256 13.3996 196.376 13.2134 196.459 12.9918L197.766 13.2273C197.661 13.612 197.473 13.949 197.203 14.2383C196.935 14.5245 196.598 14.7476 196.191 14.9077C195.788 15.0646 195.328 15.1431 194.811 15.1431Z" fill="#838383"/>
<mask id="mask1_88_339" style="mask-type:alpha" maskUnits="userSpaceOnUse" x="108" y="0" width="18" height="18">
<rect x="108" width="18" height="18" fill="#7BC801"/>
</mask>
<g mask="url(#mask1_88_339)">
<path d="M111 16.5C110.587 16.5 110.234 16.3531 109.941 16.0594C109.647 15.7656 109.5 15.4125 109.5 15V3C109.5 2.5875 109.647 2.23438 109.941 1.94062C110.234 1.64688 110.587 1.5 111 1.5H123C123.412 1.5 123.766 1.64688 124.059 1.94062C124.353 2.23438 124.5 2.5875 124.5 3V15C124.5 15.4125 124.353 15.7656 124.059 16.0594C123.766 16.3531 123.412 16.5 123 16.5H111ZM111 15H123V3H111V15ZM113.25 13.5H120.75C121.162 13.5 121.516 13.3531 121.809 13.0594C122.103 12.7656 122.25 12.4125 122.25 12V9.375C122.25 9.0375 122.166 8.72812 121.997 8.44687C121.828 8.16562 121.6 7.9375 121.312 7.7625V6.75C121.312 6.125 121.094 5.59375 120.656 5.15625C120.219 4.71875 119.687 4.5 119.062 4.5H114.937C114.312 4.5 113.781 4.71875 113.344 5.15625C112.906 5.59375 112.687 6.125 112.687 6.75V7.7625C112.4 7.9375 112.172 8.16562 112.003 8.44687C111.834 8.72812 111.75 9.0375 111.75 9.375V12C111.75 12.4125 111.897 12.7656 112.191 13.0594C112.484 13.3531 112.837 13.5 113.25 13.5ZM113.25 12.375C113.137 12.375 113.047 12.3406 112.978 12.2719C112.909 12.2031 112.875 12.1125 112.875 12V9.375C112.875 9.1625 112.947 8.98437 113.091 8.84062C113.234 8.69687 113.412 8.625 113.625 8.625C113.837 8.625 114.016 8.69687 114.159 8.84062C114.303 8.98437 114.375 9.1625 114.375 9.375V10.875H119.625V9.375C119.625 9.1625 119.697 8.98437 119.841 8.84062C119.984 8.69687 120.162 8.625 120.375 8.625C120.587 8.625 120.766 8.69687 120.909 8.84062C121.053 8.98437 121.125 9.1625 121.125 9.375V12C121.125 12.1125 121.091 12.2031 121.022 12.2719C120.953 12.3406 120.862 12.375 120.75 12.375H113.25ZM115.5 9.75V9.375C115.5 8.8875 115.337 8.46875 115.012 8.11875C114.687 7.76875 114.287 7.575 113.812 7.5375V6.75C113.812 6.425 113.919 6.15625 114.131 5.94375C114.344 5.73125 114.612 5.625 114.937 5.625H119.062C119.387 5.625 119.656 5.73125 119.869 5.94375C120.081 6.15625 120.187 6.425 120.187 6.75V7.5375C119.712 7.575 119.312 7.76875 118.987 8.11875C118.662 8.46875 118.5 8.8875 118.5 9.375V9.75H115.5Z" fill="#7BC801"/>
</g>
<path d="M244.67 5.54545V15H243.359L238.553 8.06605H238.465V15H237.039V5.54545H238.359L243.169 12.4886H243.257V5.54545H244.67ZM249.627 15.1431C248.962 15.1431 248.382 14.9908 247.886 14.6861C247.391 14.3814 247.006 13.9551 246.732 13.4073C246.458 12.8595 246.321 12.2193 246.321 11.4869C246.321 10.7513 246.458 10.1081 246.732 9.55717C247.006 9.00627 247.391 8.57848 247.886 8.27379C248.382 7.96911 248.962 7.81676 249.627 7.81676C250.291 7.81676 250.872 7.96911 251.367 8.27379C251.863 8.57848 252.247 9.00627 252.521 9.55717C252.795 10.1081 252.932 10.7513 252.932 11.4869C252.932 12.2193 252.795 12.8595 252.521 13.4073C252.247 13.9551 251.863 14.3814 251.367 14.6861C250.872 14.9908 250.291 15.1431 249.627 15.1431ZM249.631 13.9844C250.062 13.9844 250.419 13.8705 250.702 13.6428C250.985 13.415 251.195 13.1119 251.33 12.7333C251.469 12.3548 251.538 11.9377 251.538 11.4822C251.538 11.0298 251.469 10.6143 251.33 10.2358C251.195 9.85417 250.985 9.54794 250.702 9.31712C250.419 9.08629 250.062 8.97088 249.631 8.97088C249.197 8.97088 248.837 9.08629 248.551 9.31712C248.268 9.54794 248.057 9.85417 247.919 10.2358C247.783 10.6143 247.715 11.0298 247.715 11.4822C247.715 11.9377 247.783 12.3548 247.919 12.7333C248.057 13.1119 248.268 13.415 248.551 13.6428C248.837 13.8705 249.197 13.9844 249.631 13.9844ZM255.853 10.7898V15H254.473V7.90909H255.798V9.06321H255.885C256.049 8.68774 256.304 8.38613 256.652 8.15838C257.003 7.93063 257.444 7.81676 257.977 7.81676C258.46 7.81676 258.883 7.91832 259.246 8.12145C259.609 8.3215 259.891 8.62003 260.091 9.01705C260.291 9.41406 260.391 9.90495 260.391 10.4897V15H259.011V10.6559C259.011 10.1419 258.877 9.74029 258.609 9.45099C258.341 9.15862 257.974 9.01243 257.506 9.01243C257.186 9.01243 256.901 9.08168 256.652 9.22017C256.406 9.35866 256.21 9.56179 256.066 9.82955C255.924 10.0942 255.853 10.4143 255.853 10.7898ZM268.337 15.1385C267.765 15.1385 267.254 14.9923 266.805 14.6999C266.358 14.4045 266.007 13.9844 265.752 13.4396C265.5 12.8918 265.373 12.2347 265.373 11.4684C265.373 10.7021 265.501 10.0465 265.757 9.50178C266.015 8.95703 266.369 8.54001 266.818 8.25071C267.268 7.96141 267.777 7.81676 268.347 7.81676C268.787 7.81676 269.141 7.89062 269.408 8.03835C269.679 8.183 269.888 8.35227 270.036 8.54616C270.187 8.74006 270.304 8.91087 270.387 9.05859H270.47V5.54545H271.85V15H270.502V13.8967H270.387C270.304 14.0475 270.184 14.2198 270.027 14.4137C269.873 14.6076 269.661 14.7769 269.39 14.9215C269.119 15.0662 268.768 15.1385 268.337 15.1385ZM268.642 13.9613C269.039 13.9613 269.374 13.8567 269.648 13.6474C269.925 13.435 270.135 13.1411 270.276 12.7656C270.421 12.3902 270.493 11.9531 270.493 11.4545C270.493 10.9621 270.422 10.5312 270.281 10.1619C270.139 9.79261 269.931 9.50485 269.658 9.29865C269.384 9.09245 269.045 8.98935 268.642 8.98935C268.226 8.98935 267.88 9.09706 267.603 9.3125C267.326 9.52794 267.117 9.82185 266.975 10.1942C266.837 10.5666 266.768 10.9867 266.768 11.4545C266.768 11.9285 266.838 12.3548 266.98 12.7333C267.122 13.1119 267.331 13.4119 267.608 13.6335C267.888 13.852 268.233 13.9613 268.642 13.9613ZM273.82 15V7.90909H275.201V15H273.82ZM274.518 6.81499C274.278 6.81499 274.071 6.73497 273.899 6.57493C273.73 6.41181 273.645 6.21792 273.645 5.99325C273.645 5.76551 273.73 5.57161 273.899 5.41158C274.071 5.24846 274.278 5.1669 274.518 5.1669C274.758 5.1669 274.962 5.24846 275.132 5.41158C275.304 5.57161 275.39 5.76551 275.39 5.99325C275.39 6.21792 275.304 6.41181 275.132 6.57493C274.962 6.73497 274.758 6.81499 274.518 6.81499ZM282.371 9.64027L281.12 9.86186C281.068 9.70182 280.985 9.54948 280.871 9.40483C280.76 9.26018 280.609 9.14169 280.419 9.04936C280.228 8.95703 279.989 8.91087 279.703 8.91087C279.312 8.91087 278.986 8.99858 278.724 9.17401C278.463 9.34635 278.332 9.56948 278.332 9.84339C278.332 10.0804 278.42 10.2712 278.595 10.4158C278.771 10.5605 279.054 10.679 279.445 10.7713L280.571 11.0298C281.223 11.1806 281.71 11.413 282.03 11.7269C282.35 12.0408 282.51 12.4486 282.51 12.9503C282.51 13.375 282.387 13.7536 282.141 14.0859C281.897 14.4152 281.557 14.6738 281.12 14.8615C280.686 15.0492 280.183 15.1431 279.611 15.1431C278.817 15.1431 278.169 14.9738 277.667 14.6353C277.166 14.2937 276.858 13.8089 276.744 13.1811L278.078 12.978C278.161 13.3258 278.332 13.5889 278.59 13.7674C278.849 13.9428 279.186 14.0305 279.601 14.0305C280.054 14.0305 280.416 13.9367 280.686 13.7489C280.957 13.5581 281.093 13.3258 281.093 13.0518C281.093 12.8303 281.009 12.6441 280.843 12.4933C280.68 12.3424 280.429 12.2286 280.091 12.1516L278.891 11.8885C278.229 11.7377 277.739 11.4976 277.422 11.1683C277.109 10.839 276.952 10.422 276.952 9.91726C276.952 9.4987 277.069 9.13246 277.302 8.81854C277.536 8.50462 277.86 8.25994 278.272 8.08452C278.684 7.90601 279.157 7.81676 279.689 7.81676C280.456 7.81676 281.059 7.98295 281.499 8.31534C281.939 8.64465 282.23 9.08629 282.371 9.64027ZM284.028 17.6591V7.90909H285.376V9.05859H285.491C285.571 8.91087 285.686 8.74006 285.837 8.54616C285.988 8.35227 286.197 8.183 286.465 8.03835C286.733 7.89062 287.087 7.81676 287.527 7.81676C288.099 7.81676 288.61 7.96141 289.059 8.25071C289.509 8.54001 289.861 8.95703 290.117 9.50178C290.375 10.0465 290.504 10.7021 290.504 11.4684C290.504 12.2347 290.377 12.8918 290.121 13.4396C289.866 13.9844 289.515 14.4045 289.069 14.6999C288.622 14.9923 288.113 15.1385 287.541 15.1385C287.11 15.1385 286.757 15.0662 286.483 14.9215C286.213 14.7769 286 14.6076 285.846 14.4137C285.693 14.2198 285.574 14.0475 285.491 13.8967H285.408V17.6591H284.028ZM285.38 11.4545C285.38 11.9531 285.452 12.3902 285.597 12.7656C285.742 13.1411 285.951 13.435 286.225 13.6474C286.499 13.8567 286.834 13.9613 287.231 13.9613C287.644 13.9613 287.988 13.852 288.265 13.6335C288.542 13.4119 288.752 13.1119 288.893 12.7333C289.038 12.3548 289.11 11.9285 289.11 11.4545C289.11 10.9867 289.039 10.5666 288.898 10.1942C288.759 9.82185 288.55 9.52794 288.27 9.3125C287.993 9.09706 287.647 8.98935 287.231 8.98935C286.831 8.98935 286.493 9.09245 286.216 9.29865C285.942 9.50485 285.734 9.79261 285.593 10.1619C285.451 10.5312 285.38 10.9621 285.38 11.4545ZM295.038 15.1431C294.373 15.1431 293.793 14.9908 293.297 14.6861C292.802 14.3814 292.417 13.9551 292.143 13.4073C291.869 12.8595 291.732 12.2193 291.732 11.4869C291.732 10.7513 291.869 10.1081 292.143 9.55717C292.417 9.00627 292.802 8.57848 293.297 8.27379C293.793 7.96911 294.373 7.81676 295.038 7.81676C295.703 7.81676 296.283 7.96911 296.778 8.27379C297.274 8.57848 297.658 9.00627 297.932 9.55717C298.206 10.1081 298.343 10.7513 298.343 11.4869C298.343 12.2193 298.206 12.8595 297.932 13.4073C297.658 13.9551 297.274 14.3814 296.778 14.6861C296.283 14.9908 295.703 15.1431 295.038 15.1431ZM295.042 13.9844C295.473 13.9844 295.83 13.8705 296.113 13.6428C296.397 13.415 296.606 13.1119 296.741 12.7333C296.88 12.3548 296.949 11.9377 296.949 11.4822C296.949 11.0298 296.88 10.6143 296.741 10.2358C296.606 9.85417 296.397 9.54794 296.113 9.31712C295.83 9.08629 295.473 8.97088 295.042 8.97088C294.608 8.97088 294.248 9.08629 293.962 9.31712C293.679 9.54794 293.468 9.85417 293.33 10.2358C293.194 10.6143 293.127 11.0298 293.127 11.4822C293.127 11.9377 293.194 12.3548 293.33 12.7333C293.468 13.1119 293.679 13.415 293.962 13.6428C294.248 13.8705 294.608 13.9844 295.042 13.9844ZM301.264 10.7898V15H299.884V7.90909H301.209V9.06321H301.297C301.46 8.68774 301.715 8.38613 302.063 8.15838C302.414 7.93063 302.855 7.81676 303.388 7.81676C303.871 7.81676 304.294 7.91832 304.657 8.12145C305.021 8.3215 305.302 8.62003 305.502 9.01705C305.702 9.41406 305.802 9.90495 305.802 10.4897V15H304.422V10.6559C304.422 10.1419 304.288 9.74029 304.02 9.45099C303.753 9.15862 303.385 9.01243 302.917 9.01243C302.597 9.01243 302.312 9.08168 302.063 9.22017C301.817 9.35866 301.621 9.56179 301.477 9.82955C301.335 10.0942 301.264 10.4143 301.264 10.7898ZM307.653 15V7.90909H309.034V15H307.653ZM308.351 6.81499C308.111 6.81499 307.904 6.73497 307.732 6.57493C307.563 6.41181 307.478 6.21792 307.478 5.99325C307.478 5.76551 307.563 5.57161 307.732 5.41158C307.904 5.24846 308.111 5.1669 308.351 5.1669C308.591 5.1669 308.795 5.24846 308.965 5.41158C309.137 5.57161 309.223 5.76551 309.223 5.99325C309.223 6.21792 309.137 6.41181 308.965 6.57493C308.795 6.73497 308.591 6.81499 308.351 6.81499ZM311.002 15V5.54545H312.382V9.05859H312.465C312.545 8.91087 312.66 8.74006 312.811 8.54616C312.962 8.35227 313.171 8.183 313.439 8.03835C313.707 7.89062 314.061 7.81676 314.501 7.81676C315.073 7.81676 315.584 7.96141 316.034 8.25071C316.483 8.54001 316.835 8.95703 317.091 9.50178C317.349 10.0465 317.479 10.7021 317.479 11.4684C317.479 12.2347 317.351 12.8918 317.095 13.4396C316.84 13.9844 316.489 14.4045 316.043 14.6999C315.597 14.9923 315.087 15.1385 314.515 15.1385C314.084 15.1385 313.731 15.0662 313.458 14.9215C313.187 14.7769 312.974 14.6076 312.82 14.4137C312.667 14.2198 312.548 14.0475 312.465 13.8967H312.35V15H311.002ZM312.354 11.4545C312.354 11.9531 312.427 12.3902 312.571 12.7656C312.716 13.1411 312.925 13.435 313.199 13.6474C313.473 13.8567 313.808 13.9613 314.205 13.9613C314.618 13.9613 314.963 13.852 315.24 13.6335C315.517 13.4119 315.726 13.1119 315.867 12.7333C316.012 12.3548 316.084 11.9285 316.084 11.4545C316.084 10.9867 316.014 10.5666 315.872 10.1942C315.733 9.82185 315.524 9.52794 315.244 9.3125C314.967 9.09706 314.621 8.98935 314.205 8.98935C313.805 8.98935 313.467 9.09245 313.19 9.29865C312.916 9.50485 312.708 9.79261 312.567 10.1619C312.425 10.5312 312.354 10.9621 312.354 11.4545ZM320.409 5.54545V15H319.028V5.54545H320.409ZM325.322 15.1431C324.623 15.1431 324.022 14.9938 323.517 14.6953C323.015 14.3937 322.627 13.9705 322.354 13.4258C322.083 12.878 321.947 12.2363 321.947 11.5007C321.947 10.7744 322.083 10.1342 322.354 9.58026C322.627 9.02628 323.009 8.59387 323.498 8.28303C323.991 7.97218 324.566 7.81676 325.225 7.81676C325.625 7.81676 326.013 7.88293 326.388 8.01527C326.764 8.14761 327.101 8.35535 327.399 8.63849C327.698 8.92164 327.933 9.28942 328.106 9.74183C328.278 10.1912 328.364 10.7375 328.364 11.3807V11.87H322.727V10.8359H327.012C327.012 10.4728 326.938 10.1512 326.79 9.87109C326.642 9.58795 326.434 9.36482 326.167 9.2017C325.902 9.03859 325.591 8.95703 325.234 8.95703C324.846 8.95703 324.508 9.05244 324.219 9.24325C323.932 9.43099 323.711 9.6772 323.554 9.98189C323.4 10.2835 323.323 10.6113 323.323 10.9652V11.7731C323.323 12.247 323.406 12.6502 323.572 12.9826C323.742 13.315 323.977 13.5689 324.279 13.7443C324.58 13.9167 324.933 14.0028 325.336 14.0028C325.597 14.0028 325.836 13.9659 326.051 13.892C326.267 13.8151 326.453 13.7012 326.61 13.5504C326.767 13.3996 326.887 13.2134 326.97 12.9918L328.276 13.2273C328.172 13.612 327.984 13.949 327.713 14.2383C327.445 14.5245 327.108 14.7476 326.702 14.9077C326.299 15.0646 325.839 15.1431 325.322 15.1431Z" fill="#838383"/>
<mask id="mask2_88_339" style="mask-type:alpha" maskUnits="userSpaceOnUse" x="211" y="0" width="18" height="18">
<rect x="211" width="18" height="18" fill="#EAEAEA"/>
</mask>
<g mask="url(#mask2_88_339)">
<path d="M214 16.5C213.587 16.5 213.234 16.3531 212.941 16.0594C212.647 15.7656 212.5 15.4125 212.5 15V3C212.5 2.5875 212.647 2.23438 212.941 1.94062C213.234 1.64688 213.587 1.5 214 1.5H226C226.412 1.5 226.766 1.64688 227.059 1.94062C227.353 2.23438 227.5 2.5875 227.5 3V15C227.5 15.4125 227.353 15.7656 227.059 16.0594C226.766 16.3531 226.412 16.5 226 16.5H214ZM214 15H226V3H214V15ZM216.25 13.5H223.75C224.162 13.5 224.516 13.3531 224.809 13.0594C225.103 12.7656 225.25 12.4125 225.25 12V9.375C225.25 9.0375 225.166 8.72812 224.997 8.44687C224.828 8.16562 224.6 7.9375 224.312 7.7625V6.75C224.312 6.125 224.094 5.59375 223.656 5.15625C223.219 4.71875 222.687 4.5 222.062 4.5H217.937C217.312 4.5 216.781 4.71875 216.344 5.15625C215.906 5.59375 215.687 6.125 215.687 6.75V7.7625C215.4 7.9375 215.172 8.16562 215.003 8.44687C214.834 8.72812 214.75 9.0375 214.75 9.375V12C214.75 12.4125 214.897 12.7656 215.191 13.0594C215.484 13.3531 215.837 13.5 216.25 13.5ZM216.25 12.375C216.137 12.375 216.047 12.3406 215.978 12.2719C215.909 12.2031 215.875 12.1125 215.875 12V9.375C215.875 9.1625 215.947 8.98437 216.091 8.84062C216.234 8.69687 216.412 8.625 216.625 8.625C216.837 8.625 217.016 8.69687 217.159 8.84062C217.303 8.98437 217.375 9.1625 217.375 9.375V10.875H222.625V9.375C222.625 9.1625 222.697 8.98437 222.841 8.84062C222.984 8.69687 223.162 8.625 223.375 8.625C223.587 8.625 223.766 8.69687 223.909 8.84062C224.053 8.98437 224.125 9.1625 224.125 9.375V12C224.125 12.1125 224.091 12.2031 224.022 12.2719C223.953 12.3406 223.862 12.375 223.75 12.375H216.25ZM218.5 9.75V9.375C218.5 8.8875 218.337 8.46875 218.012 8.11875C217.687 7.76875 217.287 7.575 216.812 7.5375V6.75C216.812 6.425 216.919 6.15625 217.131 5.94375C217.344 5.73125 217.612 5.625 217.937 5.625H222.062C222.387 5.625 222.656 5.73125 222.869 5.94375C223.081 6.15625 223.187 6.425 223.187 6.75V7.5375C222.712 7.575 222.312 7.76875 221.987 8.11875C221.662 8.46875 221.5 8.8875 221.5 9.375V9.75H218.5Z" fill="#EAEAEA"/>
</g>
</svg>
