<svg width="21" height="21" viewBox="0 0 21 21" fill="none" xmlns="http://www.w3.org/2000/svg">
<mask id="mask0_88_626" style="mask-type:alpha" maskUnits="userSpaceOnUse" x="0" y="0" width="21" height="21">
<rect width="21" height="21" fill="#D9D9D9"/>
</mask>
<g mask="url(#mask0_88_626)">
<path d="M10.4561 15.75C10.7624 15.75 11.0212 15.6443 11.2327 15.4328C11.4441 15.2214 11.5499 14.9625 11.5499 14.6562C11.5499 14.35 11.4441 14.0911 11.2327 13.8797C11.0212 13.6682 10.7624 13.5625 10.4561 13.5625C10.1499 13.5625 9.89102 13.6682 9.67957 13.8797C9.46811 14.0911 9.36238 14.35 9.36238 14.6562C9.36238 14.9625 9.46811 15.2214 9.67957 15.4328C9.89102 15.6443 10.1499 15.75 10.4561 15.75ZM9.66863 12.3813H11.2874C11.2874 11.9 11.3421 11.5208 11.4514 11.2438C11.5608 10.9667 11.8707 10.5875 12.3811 10.1062C12.7603 9.72708 13.0593 9.36615 13.278 9.02344C13.4968 8.68073 13.6061 8.26875 13.6061 7.7875C13.6061 6.97083 13.3072 6.34375 12.7093 5.90625C12.1113 5.46875 11.404 5.25 10.5874 5.25C9.75613 5.25 9.08165 5.46875 8.56394 5.90625C8.04623 6.34375 7.68529 6.86875 7.48113 7.48125L8.92488 8.05C8.99779 7.7875 9.16186 7.50312 9.41707 7.19688C9.67227 6.89062 10.0624 6.7375 10.5874 6.7375C11.054 6.7375 11.404 6.8651 11.6374 7.12031C11.8707 7.37552 11.9874 7.65625 11.9874 7.9625C11.9874 8.25417 11.8999 8.5276 11.7249 8.78281C11.5499 9.03802 11.3311 9.275 11.0686 9.49375C10.427 10.0625 10.0332 10.4927 9.88738 10.7844C9.74154 11.076 9.66863 11.6083 9.66863 12.3813ZM10.4999 19.25C9.28946 19.25 8.15196 19.0203 7.08738 18.5609C6.02279 18.1016 5.09675 17.4781 4.30925 16.6906C3.52175 15.9031 2.89832 14.9771 2.43894 13.9125C1.97957 12.8479 1.74988 11.7104 1.74988 10.5C1.74988 9.28958 1.97957 8.15208 2.43894 7.0875C2.89832 6.02292 3.52175 5.09687 4.30925 4.30938C5.09675 3.52187 6.02279 2.89844 7.08738 2.43906C8.15196 1.97969 9.28946 1.75 10.4999 1.75C11.7103 1.75 12.8478 1.97969 13.9124 2.43906C14.977 2.89844 15.903 3.52187 16.6905 4.30938C17.478 5.09687 18.1014 6.02292 18.5608 7.0875C19.0202 8.15208 19.2499 9.28958 19.2499 10.5C19.2499 11.7104 19.0202 12.8479 18.5608 13.9125C18.1014 14.9771 17.478 15.9031 16.6905 16.6906C15.903 17.4781 14.977 18.1016 13.9124 18.5609C12.8478 19.0203 11.7103 19.25 10.4999 19.25ZM10.4999 17.5C12.454 17.5 14.1093 16.8219 15.4655 15.4656C16.8218 14.1094 17.4999 12.4542 17.4999 10.5C17.4999 8.54583 16.8218 6.89063 15.4655 5.53438C14.1093 4.17813 12.454 3.5 10.4999 3.5C8.54571 3.5 6.8905 4.17813 5.53425 5.53438C4.178 6.89063 3.49988 8.54583 3.49988 10.5C3.49988 12.4542 4.178 14.1094 5.53425 15.4656C6.8905 16.8219 8.54571 17.5 10.4999 17.5Z" fill="#F29123"/>
</g>
</svg>
