<svg width="27" height="26" viewBox="0 0 27 26" fill="none" xmlns="http://www.w3.org/2000/svg">
<mask id="mask0_318_24" style="mask-type:alpha" maskUnits="userSpaceOnUse" x="0" y="0" width="27" height="26">
<rect x="0.896545" width="25.9483" height="25.9483" fill="#B1B1B1"/>
</mask>
<g mask="url(#mask0_318_24)">
<path d="M12.7894 18.38H14.9518V11.893H12.7894V18.38ZM13.8706 9.7306C14.177 9.7306 14.4337 9.62699 14.641 9.41976C14.8482 9.21254 14.9518 8.95576 14.9518 8.64942C14.9518 8.34309 14.8482 8.08631 14.641 7.87908C14.4337 7.67186 14.177 7.56824 13.8706 7.56824C13.5643 7.56824 13.3075 7.67186 13.1003 7.87908C12.8931 8.08631 12.7894 8.34309 12.7894 8.64942C12.7894 8.95576 12.8931 9.21254 13.1003 9.41976C13.3075 9.62699 13.5643 9.7306 13.8706 9.7306ZM13.8706 23.7859C12.375 23.7859 10.9695 23.5021 9.65402 22.9345C8.33859 22.3669 7.19434 21.5965 6.22128 20.6235C5.24822 19.6504 4.47788 18.5062 3.91027 17.1907C3.34265 15.8753 3.05884 14.4698 3.05884 12.9741C3.05884 11.4785 3.34265 10.073 3.91027 8.75754C4.47788 7.44211 5.24822 6.29786 6.22128 5.3248C7.19434 4.35174 8.33859 3.5814 9.65402 3.01378C10.9695 2.44616 12.375 2.16235 13.8706 2.16235C15.3662 2.16235 16.7718 2.44616 18.0872 3.01378C19.4026 3.5814 20.5469 4.35174 21.52 5.3248C22.493 6.29786 23.2634 7.44211 23.831 8.75754C24.3986 10.073 24.6824 11.4785 24.6824 12.9741C24.6824 14.4698 24.3986 15.8753 23.831 17.1907C23.2634 18.5062 22.493 19.6504 21.52 20.6235C20.5469 21.5965 19.4026 22.3669 18.0872 22.9345C16.7718 23.5021 15.3662 23.7859 13.8706 23.7859ZM13.8706 21.6236C16.2853 21.6236 18.3305 20.7856 20.0063 19.1098C21.6821 17.434 22.52 15.3888 22.52 12.9741C22.52 10.5595 21.6821 8.51428 20.0063 6.83845C18.3305 5.16262 16.2853 4.32471 13.8706 4.32471C11.456 4.32471 9.41076 5.16262 7.73493 6.83845C6.05911 8.51428 5.22119 10.5595 5.22119 12.9741C5.22119 15.3888 6.05911 17.434 7.73493 19.1098C9.41076 20.7856 11.456 21.6236 13.8706 21.6236Z" fill="#B1B1B1"/>
</g>
</svg>
