<svg width="26" height="27" viewBox="0 0 26 27" fill="none" xmlns="http://www.w3.org/2000/svg">
<path d="M2.622 26.179C1.908 26.179 1.29677 25.9248 0.788318 25.4163C0.279862 24.9079 0.0256348 24.2966 0.0256348 23.5826V2.8117C0.0256348 2.0977 0.279862 1.48647 0.788318 0.978015C1.29677 0.46956 1.908 0.215332 2.622 0.215332H23.3929C24.1069 0.215332 24.7182 0.46956 25.2266 0.978015C25.7351 1.48647 25.9893 2.0977 25.9893 2.8117V23.5826C25.9893 24.2966 25.7351 24.9079 25.2266 25.4163C24.7182 25.9248 24.1069 26.179 23.3929 26.179H2.622ZM2.622 23.5826H23.3929V2.8117H2.622V23.5826ZM6.51655 20.9863H19.4984C20.2124 20.9863 20.8236 20.732 21.3321 20.2236C21.8405 19.7151 22.0948 19.1039 22.0948 18.3899V13.8463C22.0948 13.2621 21.9487 12.7266 21.6566 12.2398C21.3645 11.7529 20.9697 11.3581 20.472 11.0552V9.30262C20.472 8.2208 20.0934 7.30125 19.3361 6.54398C18.5788 5.7867 17.6593 5.40807 16.5775 5.40807H9.43747C8.35565 5.40807 7.4361 5.7867 6.67883 6.54398C5.92155 7.30125 5.54291 8.2208 5.54291 9.30262V11.0552C5.04528 11.3581 4.65041 11.7529 4.35832 12.2398C4.06623 12.7266 3.92019 13.2621 3.92019 13.8463V18.3899C3.92019 19.1039 4.17441 19.7151 4.68287 20.2236C5.19132 20.732 5.80255 20.9863 6.51655 20.9863ZM6.51655 19.039C6.32182 19.039 6.16496 18.9795 6.04596 18.8605C5.92696 18.7415 5.86746 18.5846 5.86746 18.3899V13.8463C5.86746 13.4784 5.99187 13.1701 6.24069 12.9213C6.48951 12.6725 6.79783 12.5481 7.16564 12.5481C7.53346 12.5481 7.84178 12.6725 8.0906 12.9213C8.33942 13.1701 8.46383 13.4784 8.46383 13.8463V16.4426H17.5511V13.8463C17.5511 13.4784 17.6755 13.1701 17.9243 12.9213C18.1732 12.6725 18.4815 12.5481 18.8493 12.5481C19.2171 12.5481 19.5254 12.6725 19.7743 12.9213C20.0231 13.1701 20.1475 13.4784 20.1475 13.8463V18.3899C20.1475 18.5846 20.088 18.7415 19.969 18.8605C19.85 18.9795 19.6931 19.039 19.4984 19.039H6.51655ZM10.4111 14.4954V13.8463C10.4111 13.0024 10.1298 12.2776 9.56728 11.6718C9.00474 11.066 8.31237 10.7306 7.49019 10.6657V9.30262C7.49019 8.74007 7.6741 8.27489 8.04192 7.90707C8.40974 7.53925 8.87492 7.35534 9.43747 7.35534H16.5775C17.14 7.35534 17.6052 7.53925 17.973 7.90707C18.3408 8.27489 18.5247 8.74007 18.5247 9.30262V10.6657C17.7026 10.7306 17.0102 11.066 16.4477 11.6718C15.8851 12.2776 15.6038 13.0024 15.6038 13.8463V14.4954H10.4111Z" fill="#F29123"/>
</svg>
