<svg width="27" height="27" viewBox="0 0 27 27" fill="none" xmlns="http://www.w3.org/2000/svg">
<path d="M3.17315 26.4612C2.45915 26.4612 1.84792 26.207 1.33947 25.6985C0.83101 25.1901 0.576782 24.5789 0.576782 23.8649V3.09393C0.576782 2.37992 0.83101 1.7687 1.33947 1.26024C1.84792 0.751786 2.45915 0.497559 3.17315 0.497559H23.9441C24.6581 0.497559 25.2693 0.751786 25.7778 1.26024C26.2862 1.7687 26.5405 2.37992 26.5405 3.09393V23.8649C26.5405 24.5789 26.2862 25.1901 25.7778 25.6985C25.2693 26.207 24.6581 26.4612 23.9441 26.4612H3.17315ZM3.17315 23.8649H23.9441V3.09393H3.17315V23.8649ZM7.0677 21.2685H20.0495C20.7635 21.2685 21.3748 21.0143 21.8832 20.5058C22.3917 19.9974 22.6459 19.3861 22.6459 18.6721V14.1285C22.6459 13.5443 22.4999 13.0088 22.2078 12.522C21.9157 12.0352 21.5208 11.6403 21.0232 11.3374V9.58484C21.0232 8.50302 20.6445 7.58348 19.8873 6.8262C19.13 6.06893 18.2104 5.69029 17.1286 5.69029H9.98861C8.90679 5.69029 7.98725 6.06893 7.22997 6.8262C6.4727 7.58348 6.09406 8.50302 6.09406 9.58484V11.3374C5.59643 11.6403 5.20156 12.0352 4.90947 12.522C4.61738 13.0088 4.47133 13.5443 4.47133 14.1285V18.6721C4.47133 19.3861 4.72556 19.9974 5.23402 20.5058C5.74247 21.0143 6.3537 21.2685 7.0677 21.2685ZM7.0677 19.3212C6.87297 19.3212 6.71611 19.2617 6.59711 19.1427C6.47811 19.0237 6.41861 18.8669 6.41861 18.6721V14.1285C6.41861 13.7607 6.54302 13.4523 6.79184 13.2035C7.04065 12.9547 7.34897 12.8303 7.71679 12.8303C8.08461 12.8303 8.39293 12.9547 8.64175 13.2035C8.89057 13.4523 9.01498 13.7607 9.01498 14.1285V16.7249H18.1023V14.1285C18.1023 13.7607 18.2267 13.4523 18.4755 13.2035C18.7243 12.9547 19.0326 12.8303 19.4004 12.8303C19.7683 12.8303 20.0766 12.9547 20.3254 13.2035C20.5742 13.4523 20.6986 13.7607 20.6986 14.1285V18.6721C20.6986 18.8669 20.6391 19.0237 20.5201 19.1427C20.4011 19.2617 20.2443 19.3212 20.0495 19.3212H7.0677ZM10.9623 14.7776V14.1285C10.9623 13.2847 10.681 12.5598 10.1184 11.954C9.55589 11.3482 8.86352 11.0128 8.04134 10.9479V9.58484C8.04134 9.0223 8.22525 8.55712 8.59307 8.1893C8.96089 7.82148 9.42607 7.63757 9.98861 7.63757H17.1286C17.6912 7.63757 18.1564 7.82148 18.5242 8.1893C18.892 8.55712 19.0759 9.0223 19.0759 9.58484V10.9479C18.2537 11.0128 17.5614 11.3482 16.9988 11.954C16.4363 12.5598 16.155 13.2847 16.155 14.1285V14.7776H10.9623Z" fill="#76C613"/>
</svg>
