<svg width="27" height="27" viewBox="0 0 27 27" fill="none" xmlns="http://www.w3.org/2000/svg">
<path d="M3.56438 26.7679C2.85038 26.7679 2.23916 26.5136 1.7307 26.0052C1.22225 25.4967 0.968018 24.8855 0.968018 24.1715V3.40057C0.968018 2.68657 1.22225 2.07534 1.7307 1.56688C2.23916 1.05843 2.85038 0.804199 3.56438 0.804199H24.3353C25.0493 0.804199 25.6606 1.05843 26.169 1.56688C26.6775 2.07534 26.9317 2.68657 26.9317 3.40057V24.1715C26.9317 24.8855 26.6775 25.4967 26.169 26.0052C25.6606 26.5136 25.0493 26.7679 24.3353 26.7679H3.56438ZM3.56438 24.1715H24.3353V3.40057H3.56438V24.1715ZM7.45894 21.5751H20.4408C21.1548 21.5751 21.766 21.3209 22.2745 20.8125C22.7829 20.304 23.0371 19.6928 23.0371 18.9788V14.4351C23.0371 13.8509 22.8911 13.3154 22.599 12.8286C22.3069 12.3418 21.912 11.9469 21.4144 11.644V9.89148C21.4144 8.80966 21.0358 7.89012 20.2785 7.13284C19.5212 6.37557 18.6017 5.99693 17.5199 5.99693H10.3798C9.29803 5.99693 8.37848 6.37557 7.62121 7.13284C6.86393 7.89012 6.4853 8.80966 6.4853 9.89148V11.644C5.98766 11.9469 5.5928 12.3418 5.30071 12.8286C5.00861 13.3154 4.86257 13.8509 4.86257 14.4351V18.9788C4.86257 19.6928 5.1168 20.304 5.62525 20.8125C6.13371 21.3209 6.74493 21.5751 7.45894 21.5751ZM7.45894 19.6279C7.26421 19.6279 7.10734 19.5684 6.98834 19.4494C6.86934 19.3304 6.80984 19.1735 6.80984 18.9788V14.4351C6.80984 14.0673 6.93425 13.759 7.18307 13.5102C7.43189 13.2614 7.74021 13.1369 8.10803 13.1369C8.47585 13.1369 8.78416 13.2614 9.03298 13.5102C9.2818 13.759 9.40621 14.0673 9.40621 14.4351V17.0315H18.4935V14.4351C18.4935 14.0673 18.6179 13.759 18.8667 13.5102C19.1155 13.2614 19.4239 13.1369 19.7917 13.1369C20.1595 13.1369 20.4678 13.2614 20.7166 13.5102C20.9655 13.759 21.0899 14.0673 21.0899 14.4351V18.9788C21.0899 19.1735 21.0304 19.3304 20.9114 19.4494C20.7924 19.5684 20.6355 19.6279 20.4408 19.6279H7.45894ZM11.3535 15.0842V14.4351C11.3535 13.5913 11.0722 12.8665 10.5097 12.2607C9.94712 11.6549 9.25476 11.3195 8.43257 11.2546V9.89148C8.43257 9.32894 8.61648 8.86376 8.9843 8.49594C9.35212 8.12812 9.8173 7.94421 10.3798 7.94421H17.5199C18.0824 7.94421 18.5476 8.12812 18.9154 8.49594C19.2832 8.86376 19.4671 9.32894 19.4671 9.89148V11.2546C18.645 11.3195 17.9526 11.6549 17.39 12.2607C16.8275 12.8665 16.5462 13.5913 16.5462 14.4351V15.0842H11.3535Z" fill="#EAEAEA"/>
</svg>
