<svg width="10" height="10" viewBox="0 0 10 10" fill="none" xmlns="http://www.w3.org/2000/svg">
<mask id="mask0_39_588" style="mask-type:alpha" maskUnits="userSpaceOnUse" x="0" y="0" width="10" height="10">
<rect width="10" height="10" fill="#D9D9D9"/>
</mask>
<g mask="url(#mask0_39_588)">
<path d="M2.50008 9.16667C2.27091 9.16667 2.07473 9.08507 1.91154 8.92188C1.74835 8.75869 1.66675 8.5625 1.66675 8.33334V4.16667C1.66675 3.93751 1.74835 3.74132 1.91154 3.57813C2.07473 3.41494 2.27091 3.33334 2.50008 3.33334H2.91675V2.50001C2.91675 1.92362 3.11987 1.4323 3.52612 1.02605C3.93237 0.619797 4.42369 0.416672 5.00008 0.416672C5.57647 0.416672 6.06779 0.619797 6.47404 1.02605C6.88029 1.4323 7.08341 1.92362 7.08341 2.50001V3.33334H7.50008C7.72925 3.33334 7.92543 3.41494 8.08862 3.57813C8.25182 3.74132 8.33341 3.93751 8.33341 4.16667V8.33334C8.33341 8.5625 8.25182 8.75869 8.08862 8.92188C7.92543 9.08507 7.72925 9.16667 7.50008 9.16667H2.50008ZM2.50008 8.33334H7.50008V4.16667H2.50008V8.33334ZM5.00008 7.08334C5.22925 7.08334 5.42543 7.00174 5.58862 6.83855C5.75182 6.67535 5.83341 6.47917 5.83341 6.25C5.83341 6.02084 5.75182 5.82466 5.58862 5.66146C5.42543 5.49827 5.22925 5.41667 5.00008 5.41667C4.77091 5.41667 4.57473 5.49827 4.41154 5.66146C4.24835 5.82466 4.16675 6.02084 4.16675 6.25C4.16675 6.47917 4.24835 6.67535 4.41154 6.83855C4.57473 7.00174 4.77091 7.08334 5.00008 7.08334ZM3.75008 3.33334H6.25008V2.50001C6.25008 2.15278 6.12855 1.85764 5.8855 1.61459C5.64244 1.37153 5.3473 1.25001 5.00008 1.25001C4.65286 1.25001 4.35772 1.37153 4.11466 1.61459C3.87161 1.85764 3.75008 2.15278 3.75008 2.50001V3.33334Z" fill="#F29123"/>
</g>
</svg>
