<svg width="10" height="10" viewBox="0 0 10 10" fill="none" xmlns="http://www.w3.org/2000/svg">
<mask id="mask0_103_52" style="mask-type:alpha" maskUnits="userSpaceOnUse" x="0" y="0" width="10" height="10">
<rect width="10" height="10" fill="#D9D9D9"/>
</mask>
<g mask="url(#mask0_103_52)">
<path d="M1.66659 8.33317C1.43742 8.33317 1.24124 8.25157 1.07804 8.08838C0.914849 7.92518 0.833252 7.729 0.833252 7.49984V2.49984C0.833252 2.27067 0.914849 2.07449 1.07804 1.9113C1.24124 1.7481 1.43742 1.6665 1.66659 1.6665H8.33325C8.56242 1.6665 8.7586 1.7481 8.92179 1.9113C9.08499 2.07449 9.16658 2.27067 9.16658 2.49984V7.49984C9.16658 7.729 9.08499 7.92518 8.92179 8.08838C8.7586 8.25157 8.56242 8.33317 8.33325 8.33317H1.66659ZM4.99992 5.4165L1.66659 3.33317V7.49984H8.33325V3.33317L4.99992 5.4165ZM4.99992 4.58317L8.33325 2.49984H1.66659L4.99992 4.58317ZM1.66659 3.33317V2.49984V7.49984V3.33317Z" fill="#F29123"/>
</g>
</svg>
