<svg width="36" height="36" viewBox="0 0 36 36" fill="none" xmlns="http://www.w3.org/2000/svg">
<mask id="mask0_1_144" style="mask-type:alpha" maskUnits="userSpaceOnUse" x="0" y="0" width="36" height="36">
<rect width="36" height="36" fill="#D9D9D9"/>
</mask>
<g mask="url(#mask0_1_144)">
<path d="M21 33C18.95 33 17.0125 32.6062 15.1875 31.8187C13.3625 31.0312 11.7688 29.9562 10.4062 28.5938C9.04375 27.2313 7.96875 25.6375 7.18125 23.8125C6.39375 21.9875 6 20.05 6 18C6 15.925 6.39375 13.9813 7.18125 12.1688C7.96875 10.3563 9.04375 8.76875 10.4062 7.40625C11.7688 6.04375 13.3625 4.96875 15.1875 4.18125C17.0125 3.39375 18.95 3 21 3C22.35 3 23.6625 3.175 24.9375 3.525C26.2125 3.875 27.4 4.375 28.5 5.025C26.225 6.35 24.4062 8.14375 23.0438 10.4062C21.6813 12.6687 21 15.2 21 18C21 20.8 21.6813 23.3312 23.0438 25.5938C24.4062 27.8563 26.225 29.65 28.5 30.975C27.4 31.625 26.2125 32.125 24.9375 32.475C23.6625 32.825 22.35 33 21 33ZM21 30H21.7875C22.0375 30 22.275 29.975 22.5 29.925C21.075 28.275 19.9688 26.4312 19.1813 24.3937C18.3938 22.3562 18 20.225 18 18C18 15.775 18.3938 13.6438 19.1813 11.6063C19.9688 9.56875 21.075 7.725 22.5 6.075C22.275 6.025 22.0375 6 21.7875 6H21C17.675 6 14.8438 7.16875 12.5063 9.50625C10.1688 11.8438 9 14.675 9 18C9 21.325 10.1688 24.1562 12.5063 26.4938C14.8438 28.8313 17.675 30 21 30Z" fill="#F29123"/>
</g>
</svg>
