<svg width="13" height="13" viewBox="0 0 13 13" fill="none" xmlns="http://www.w3.org/2000/svg">
<mask id="mask0_103_61" style="mask-type:alpha" maskUnits="userSpaceOnUse" x="0" y="0" width="13" height="13">
<rect width="13" height="13" fill="#D9D9D9"/>
</mask>
<g mask="url(#mask0_103_61)">
<path d="M2.16659 10.8335C1.86867 10.8335 1.61363 10.7274 1.40148 10.5153C1.18933 10.3031 1.08325 10.0481 1.08325 9.75016V2.16683C1.08325 1.86891 1.18933 1.61388 1.40148 1.40173C1.61363 1.18957 1.86867 1.0835 2.16659 1.0835H4.87492C5.17283 1.0835 5.42787 1.18957 5.64002 1.40173C5.85218 1.61388 5.95825 1.86891 5.95825 2.16683V4.87516H4.87492V3.79183H2.16659V8.12516H5.95825V9.75016C5.95825 10.0481 5.85218 10.3031 5.64002 10.5153C5.42787 10.7274 5.17283 10.8335 4.87492 10.8335H2.16659ZM8.12492 11.9168C7.827 11.9168 7.57197 11.8108 7.35981 11.5986C7.14766 11.3864 7.04158 11.1314 7.04158 10.8335V8.12516H8.12492V9.2085H10.8333V4.87516H7.04158V3.25016C7.04158 2.95225 7.14766 2.69721 7.35981 2.48506C7.57197 2.27291 7.827 2.16683 8.12492 2.16683H10.8333C11.1312 2.16683 11.3862 2.27291 11.5984 2.48506C11.8105 2.69721 11.9166 2.95225 11.9166 3.25016V10.8335C11.9166 11.1314 11.8105 11.3864 11.5984 11.5986C11.3862 11.8108 11.1312 11.9168 10.8333 11.9168H8.12492ZM2.16659 9.2085V9.75016H4.87492V9.2085H2.16659ZM8.12492 10.2918V10.8335H10.8333V10.2918H8.12492ZM2.16659 2.7085H4.87492V2.16683H2.16659V2.7085ZM8.12492 3.79183H10.8333V3.25016H8.12492V3.79183ZM4.33325 7.04183C4.17978 7.04183 4.05113 6.98992 3.94731 6.8861C3.84349 6.78228 3.79158 6.65363 3.79158 6.50016C3.79158 6.34669 3.84349 6.21804 3.94731 6.11422C4.05113 6.01041 4.17978 5.9585 4.33325 5.9585C4.48672 5.9585 4.61537 6.01041 4.71919 6.11422C4.82301 6.21804 4.87492 6.34669 4.87492 6.50016C4.87492 6.65363 4.82301 6.78228 4.71919 6.8861C4.61537 6.98992 4.48672 7.04183 4.33325 7.04183ZM6.49992 7.04183C6.34645 7.04183 6.2178 6.98992 6.11398 6.8861C6.01016 6.78228 5.95825 6.65363 5.95825 6.50016C5.95825 6.34669 6.01016 6.21804 6.11398 6.11422C6.2178 6.01041 6.34645 5.9585 6.49992 5.9585C6.65339 5.9585 6.78204 6.01041 6.88586 6.11422C6.98968 6.21804 7.04158 6.34669 7.04158 6.50016C7.04158 6.65363 6.98968 6.78228 6.88586 6.8861C6.78204 6.98992 6.65339 7.04183 6.49992 7.04183ZM8.66658 7.04183C8.51311 7.04183 8.38447 6.98992 8.28065 6.8861C8.17683 6.78228 8.12492 6.65363 8.12492 6.50016C8.12492 6.34669 8.17683 6.21804 8.28065 6.11422C8.38447 6.01041 8.51311 5.9585 8.66658 5.9585C8.82006 5.9585 8.9487 6.01041 9.05252 6.11422C9.15634 6.21804 9.20825 6.34669 9.20825 6.50016C9.20825 6.65363 9.15634 6.78228 9.05252 6.8861C8.9487 6.98992 8.82006 7.04183 8.66658 7.04183Z" fill="#F29123"/>
</g>
</svg>
