<svg width="9" height="9" viewBox="0 0 9 9" fill="none" xmlns="http://www.w3.org/2000/svg">
<path d="M4.50001 4.50004C3.99584 4.50004 3.56425 4.32053 3.20522 3.9615C2.84619 3.60247 2.66668 3.17087 2.66668 2.66671C2.66668 2.16254 2.84619 1.73094 3.20522 1.37192C3.56425 1.01289 3.99584 0.833374 4.50001 0.833374C5.00418 0.833374 5.43577 1.01289 5.7948 1.37192C6.15383 1.73094 6.33334 2.16254 6.33334 2.66671C6.33334 3.17087 6.15383 3.60247 5.7948 3.9615C5.43577 4.32053 5.00418 4.50004 4.50001 4.50004ZM0.833344 8.16671V6.88337C0.833344 6.62365 0.900184 6.38494 1.03386 6.16723C1.16754 5.94952 1.34515 5.78337 1.56668 5.66879C2.04029 5.43199 2.52154 5.25438 3.01043 5.13598C3.49932 5.01758 3.99584 4.95837 4.50001 4.95837C5.00418 4.95837 5.5007 5.01758 5.98959 5.13598C6.47848 5.25438 6.95973 5.43199 7.43334 5.66879C7.65487 5.78337 7.83248 5.94952 7.96616 6.16723C8.09984 6.38494 8.16668 6.62365 8.16668 6.88337V8.16671H0.833344ZM1.75001 7.25004H7.25001V6.88337C7.25001 6.79935 7.229 6.72296 7.18699 6.65421C7.14498 6.58546 7.08959 6.53199 7.02084 6.49379C6.60834 6.28754 6.19202 6.13285 5.77189 6.02973C5.35175 5.9266 4.92779 5.87504 4.50001 5.87504C4.07223 5.87504 3.64827 5.9266 3.22814 6.02973C2.808 6.13285 2.39168 6.28754 1.97918 6.49379C1.91043 6.53199 1.85504 6.58546 1.81303 6.65421C1.77102 6.72296 1.75001 6.79935 1.75001 6.88337V7.25004ZM4.50001 3.58337C4.75209 3.58337 4.96789 3.49362 5.14741 3.3141C5.32692 3.13459 5.41668 2.91879 5.41668 2.66671C5.41668 2.41462 5.32692 2.19883 5.14741 2.01931C4.96789 1.8398 4.75209 1.75004 4.50001 1.75004C4.24793 1.75004 4.03213 1.8398 3.85261 2.01931C3.6731 2.19883 3.58334 2.41462 3.58334 2.66671C3.58334 2.91879 3.6731 3.13459 3.85261 3.3141C4.03213 3.49362 4.24793 3.58337 4.50001 3.58337Z" fill="#F29123"/>
</svg>
