<svg width="16" height="16" viewBox="0 0 16 16" fill="none" xmlns="http://www.w3.org/2000/svg">
<mask id="mask0_61_141" style="mask-type:alpha" maskUnits="userSpaceOnUse" x="0" y="0" width="16" height="16">
<rect width="15.375" height="15.375" fill="#989898"/>
</mask>
<g mask="url(#mask0_61_141)">
<path d="M7.6875 7.6875C6.98281 7.6875 6.37956 7.43659 5.87773 6.93477C5.37591 6.43294 5.125 5.82969 5.125 5.125C5.125 4.42031 5.37591 3.81706 5.87773 3.31523C6.37956 2.81341 6.98281 2.5625 7.6875 2.5625C8.39219 2.5625 8.99544 2.81341 9.49727 3.31523C9.99909 3.81706 10.25 4.42031 10.25 5.125C10.25 5.82969 9.99909 6.43294 9.49727 6.93477C8.99544 7.43659 8.39219 7.6875 7.6875 7.6875ZM2.5625 12.8125V11.0188C2.5625 10.6557 2.65592 10.3221 2.84277 10.0178C3.02962 9.71348 3.27786 9.48125 3.5875 9.32109C4.24948 8.9901 4.92214 8.74186 5.60547 8.57637C6.2888 8.41087 6.98281 8.32812 7.6875 8.32812C8.39219 8.32812 9.0862 8.41087 9.76953 8.57637C10.4529 8.74186 11.1255 8.9901 11.7875 9.32109C12.0971 9.48125 12.3454 9.71348 12.5322 10.0178C12.7191 10.3221 12.8125 10.6557 12.8125 11.0188V12.8125H2.5625ZM3.84375 11.5312H11.5312V11.0188C11.5312 10.9013 11.5019 10.7945 11.4432 10.6984C11.3844 10.6023 11.307 10.5276 11.2109 10.4742C10.6344 10.1859 10.0525 9.96973 9.46523 9.82559C8.878 9.68145 8.28542 9.60938 7.6875 9.60938C7.08958 9.60938 6.49701 9.68145 5.90977 9.82559C5.32253 9.96973 4.74062 10.1859 4.16406 10.4742C4.06797 10.5276 3.99056 10.6023 3.93184 10.6984C3.87311 10.7945 3.84375 10.9013 3.84375 11.0188V11.5312ZM7.6875 6.40625C8.03984 6.40625 8.34147 6.28079 8.59238 6.02988C8.84329 5.77897 8.96875 5.47734 8.96875 5.125C8.96875 4.77266 8.84329 4.47103 8.59238 4.22012C8.34147 3.96921 8.03984 3.84375 7.6875 3.84375C7.33516 3.84375 7.03353 3.96921 6.78262 4.22012C6.53171 4.47103 6.40625 4.77266 6.40625 5.125C6.40625 5.47734 6.53171 5.77897 6.78262 6.02988C7.03353 6.28079 7.33516 6.40625 7.6875 6.40625Z" fill="#989898"/>
</g>
</svg>
