<svg width="35" height="35" viewBox="0 0 35 35" fill="none" xmlns="http://www.w3.org/2000/svg">
<mask id="mask0_81_107" style="mask-type:alpha" maskUnits="userSpaceOnUse" x="0" y="0" width="35" height="35">
<rect x="35" width="35" height="35" transform="rotate(90 35 0)" fill="#B1B1B1"/>
</mask>
<g mask="url(#mask0_81_107)">
<path d="M5.83333 16.0417L17.7188 16.0417L13.9271 12.25L16.0417 10.2084L23.3333 17.5L16.0417 24.7917L13.9271 22.75L17.7188 18.9584L5.83333 18.9584L5.83333 16.0417ZM21.875 5.83337L26.25 5.83337C27.0521 5.83337 27.7387 6.11896 28.3099 6.69014C28.8811 7.26133 29.1667 7.94796 29.1667 8.75004L29.1667 26.25C29.1667 27.0521 28.8811 27.7388 28.3099 28.3099C27.7387 28.8811 27.0521 29.1667 26.25 29.1667L21.875 29.1667L21.875 26.25L26.25 26.25L26.25 8.75004L21.875 8.75004L21.875 5.83337Z" fill="#B1B1B1"/>
</g>
</svg>
