<svg width="24" height="24" viewBox="0 0 24 24" fill="none" xmlns="http://www.w3.org/2000/svg">
<mask id="mask0_39_525" style="mask-type:alpha" maskUnits="userSpaceOnUse" x="0" y="0" width="24" height="24">
<rect width="24" height="24" fill="#D9D9D9"/>
</mask>
<g mask="url(#mask0_39_525)">
<path d="M12 23C10.1333 23 8.41667 22.575 6.85 21.725C5.28333 20.875 4 19.7417 3 18.325V21H1V15H7V17H4.525C5.325 18.2 6.37917 19.1667 7.6875 19.9C8.99583 20.6333 10.4333 21 12 21C13.25 21 14.4208 20.7625 15.5125 20.2875C16.6042 19.8125 17.5542 19.1708 18.3625 18.3625C19.1708 17.5542 19.8125 16.6042 20.2875 15.5125C20.7625 14.4208 21 13.25 21 12H23C23 13.5167 22.7125 14.9417 22.1375 16.275C21.5625 17.6083 20.775 18.775 19.775 19.775C18.775 20.775 17.6083 21.5625 16.275 22.1375C14.9417 22.7125 13.5167 23 12 23ZM1 12C1 10.4833 1.2875 9.05833 1.8625 7.725C2.4375 6.39167 3.225 5.225 4.225 4.225C5.225 3.225 6.39167 2.4375 7.725 1.8625C9.05833 1.2875 10.4833 1 12 1C13.8667 1 15.5833 1.425 17.15 2.275C18.7167 3.125 20 4.25833 21 5.675V3H23V9H17V7H19.475C18.675 5.8 17.6208 4.83333 16.3125 4.1C15.0042 3.36667 13.5667 3 12 3C10.75 3 9.57917 3.2375 8.4875 3.7125C7.39583 4.1875 6.44583 4.82917 5.6375 5.6375C4.82917 6.44583 4.1875 7.39583 3.7125 8.4875C3.2375 9.57917 3 10.75 3 12H1ZM12 18C12.35 18 12.6458 17.8792 12.8875 17.6375C13.1292 17.3958 13.25 17.1 13.25 16.75C13.25 16.4 13.1292 16.1 12.8875 15.85C12.6458 15.6 12.35 15.475 12 15.475C11.65 15.475 11.3542 15.5958 11.1125 15.8375C10.8708 16.0792 10.75 16.375 10.75 16.725C10.75 17.075 10.8708 17.375 11.1125 17.625C11.3542 17.875 11.65 18 12 18ZM11.1 14.2H12.925C12.925 13.6 12.9958 13.15 13.1375 12.85C13.2792 12.55 13.5667 12.1833 14 11.75C14.5833 11.1667 14.9708 10.6958 15.1625 10.3375C15.3542 9.97917 15.45 9.55 15.45 9.05C15.45 8.11667 15.1167 7.375 14.45 6.825C13.7833 6.275 12.9667 6 12 6C11.1667 6 10.45 6.21667 9.85 6.65C9.25 7.08333 8.81667 7.7 8.55 8.5L10.2 9.2C10.3167 8.76667 10.5375 8.40833 10.8625 8.125C11.1875 7.84167 11.5667 7.7 12 7.7C12.45 7.7 12.8292 7.82917 13.1375 8.0875C13.4458 8.34583 13.6 8.69167 13.6 9.125C13.6 9.40833 13.5333 9.69167 13.4 9.975C13.2667 10.2583 12.9833 10.5917 12.55 10.975C12 11.4583 11.6208 11.9292 11.4125 12.3875C11.2042 12.8458 11.1 13.45 11.1 14.2Z" fill="#F29123"/>
</g>
</svg>
