<svg width="23" height="23" viewBox="0 0 23 23" fill="none" xmlns="http://www.w3.org/2000/svg">
<mask id="mask0_88_7" style="mask-type:alpha" maskUnits="userSpaceOnUse" x="0" y="0" width="23" height="23">
<rect width="22.2241" height="22.2241" fill="#B5B5B5"/>
</mask>
<g mask="url(#mask0_88_7)">
<path d="M18.1496 19.4459L12.3158 13.6121C11.8528 13.9825 11.3204 14.2757 10.7184 14.4918C10.1165 14.7079 9.47606 14.8159 8.79699 14.8159C7.11474 14.8159 5.69101 14.2333 4.52579 13.0681C3.36057 11.9028 2.77795 10.4791 2.77795 8.79686C2.77795 7.11462 3.36057 5.69089 4.52579 4.52567C5.69101 3.36044 7.11474 2.77783 8.79699 2.77783C10.4792 2.77783 11.903 3.36044 13.0682 4.52567C14.2334 5.69089 14.816 7.11462 14.816 8.79686C14.816 9.47594 14.708 10.1164 14.4919 10.7183C14.2759 11.3202 13.9826 11.8527 13.6122 12.3157L19.446 18.1495L18.1496 19.4459ZM8.79699 12.9639C9.95449 12.9639 10.9384 12.5588 11.7486 11.7485C12.5589 10.9383 12.964 9.95437 12.964 8.79686C12.964 7.63936 12.5589 6.65548 11.7486 5.84522C10.9384 5.03497 9.95449 4.62984 8.79699 4.62984C7.63948 4.62984 6.6556 5.03497 5.84535 5.84522C5.03509 6.65548 4.62996 7.63936 4.62996 8.79686C4.62996 9.95437 5.03509 10.9383 5.84535 11.7485C6.6556 12.5588 7.63948 12.9639 8.79699 12.9639Z" fill="#F29123"/>
</g>
</svg>
